<?xml version="1.0" encoding="utf-8"?>
<!-- Generator: Adobe Illustrator 24.1.0, SVG Export Plug-In . SVG Version: 6.00 Build 0)  -->
<svg version="1.1" id="Layer_1" xmlns="http://www.w3.org/2000/svg" xmlns:xlink="http://www.w3.org/1999/xlink" x="0px" y="0px"
	 viewBox="0 0 841.89 331" enable-background="new 0 0 841.89 331" xml:space="preserve">
<g>
	<path fill="#D6005A" d="M126.975,147.085L126.975,147.085c0-5.27-4.28-9.54-9.54-9.54c-5.27,0-9.54,4.28-9.54,9.54
		s4.28,9.54,9.54,9.54C122.695,156.625,126.975,152.345,126.975,147.085 M49.375,190.615c0,0,53.16-105,53.18-105.01
		c2.68-5.32,8.46-8.89,14.88-8.89c6.82,0,12.49,3.95,15.38,9.88l53.24,105.65c4.92,11.04-2.8,23.92-15.55,23.92h-17.92l-0.01-0.22
		v-36.09c0-5.27-4.27-9.54-9.53-9.54h-0.01c-5.27,0-9.54,4.27-9.54,9.54v28.45c0,4.26-3.39,7.72-7.62,7.87h-17.25
		c-4.24-0.15-7.6-3.63-7.58-7.91l0.01-28.41c0-5.27-4.26-9.54-9.53-9.54s-9.54,4.27-9.54,9.54v36.32h-17.64
		C50.925,216.155,43.145,202.425,49.375,190.615z"/>
	<path fill="#312783" d="M461.655,78.665l-60.47,31.45l-60.46-31.45c-11.43-5.94-25.08,2.35-25.08,15.23v105.13
		c0,9.25,7.31,16.76,16.46,17.13h36.56c2.12,0,3.94-1.57,4.25-3.65c2.19-14.96,12.5-23.57,28.28-23.62
		c15.79,0.04,26.1,8.66,28.3,23.62c0.3,2.08,2.13,3.65,4.24,3.65h36.55c9.16-0.37,16.46-7.88,16.46-17.13V93.895
		C486.745,81.015,473.085,72.725,461.655,78.665"/>
	<path fill="#312783" d="M401.195,206.655c-5.26,0-9.54,4.28-9.54,9.54s4.28,9.54,9.54,9.54s9.54-4.28,9.54-9.54
		C410.735,210.935,406.455,206.655,401.195,206.655"/>
	<path fill="#BC947B" d="M635.945,190.625l-53.1-105.15c-6.56-11.71-23.4-11.71-29.96,0l-53.06,105.15
		c-6.39,11.42,1.85,25.49,14.92,25.54l61.85-0.01c2.65-0.04,4.8-2.2,4.8-4.86c0-1.52-1.01-3.99-3.96-6.98
		c-4.26-4.36-9.54-6.81-16.19-6.81c-4.22,0-9.21,1.55-13.34,4.13c-4.08,2.55-9.52,1.26-12.37-2.58c-2.91-3.96-2.34-9.94,1.57-12.95
		c7.24-5.57,15.75-8.4,25.3-8.4c7.1,0,13.56,1.32,19.18,3.96c11.75,5.59,19.21,15.88,22.2,30.59c0.44,2.22,2.42,3.9,4.77,3.9h0.01
		h12.43C634.095,216.115,642.335,202.035,635.945,190.625"/>
	<path fill="#BC947B" d="M563.405,235.245c-5.27,0-9.54,4.28-9.54,9.54s4.28,9.54,9.54,9.54c5.26,0,9.54-4.28,9.54-9.54
		C572.955,239.525,568.675,235.245,563.405,235.245"/>
	<path fill="#EF7D00" d="M244.985,137.545h-41.06v0.01c-8.94,0-16.29,6.97-16.89,15.77h-0.03c-0.12,1.53-0.18,3.08-0.18,4.65
		c0,32.12,26.03,58.17,58.14,58.19v-0.01l0.01,0.01c0-0.95,0.01-78.63,0.01-78.63V137.545z"/>
	<path fill="#EF7D00" d="M264.735,212.745c22.99-8.25,38.47-30.33,38.47-54.78v-64.1c0-9.48-7.69-17.16-17.16-17.16h-23.9
		c-9.48,0-17.16,7.68-17.16,17.16v28.55h9.55c5.25,0.02,9.5,4.29,9.5,9.53v75.24C264.035,209.465,264.175,211.305,264.735,212.745"
		/>
	<path fill="#39BBD1" d="M777.525,76.725h-23.63c-9.48,0-16.86,7.68-16.86,17.16v21.98l-60.57-36.8c-2.54-1.51-5.48-2.39-8.64-2.39
		c-9.34,0-16.9,7.57-16.9,16.9v105.44c0,9.44,7.64,17.11,17.08,17.16h11.57c2.45,0,5.14-2.12,4.83-5.45
		c-1-10.47,2.46-18.64,7.75-24.42c5.48-5.86,12.44-8.82,20.75-8.82c7.3,0,13.69,2.51,18.66,7.65c0.87,0.9,3.84,4.79,2.03,9.71
		c-1.93,5.23-6.5,6.44-8.9,6.44c-2.33,0-4.46-0.83-6.11-2.23c-2.03-1.66-3.45-2.72-6.03-2.72c-2.52,0-4.29,0.91-5.57,2.88
		c-1.4,1.9-2.06,4.62-2.06,7.62c0,5.09,1.77,9.33,5.81,9.33h66.8c9.48,0,17.16-7.69,17.16-17.16V93.885
		C794.685,84.405,786.995,76.725,777.525,76.725"/>
</g>
</svg>
