<?xml version="1.0" encoding="utf-8"?>
<!-- Generator: Adobe Illustrator 24.1.0, SVG Export Plug-In . SVG Version: 6.00 Build 0)  -->
<svg version="1.0" id="layer" xmlns="http://www.w3.org/2000/svg" xmlns:xlink="http://www.w3.org/1999/xlink" x="0px" y="0px"
	 viewBox="0 0 400 400" enable-background="new 0 0 400 400" xml:space="preserve">
<g>
	<g>
		<path fill="#4D4D4F" d="M397.19,299.38c0.19-0.09,0.19-0.47,0-0.65c-0.93-0.93-3.36-3.36-4.29-4.29c-0.19-0.19-0.37-0.19-0.56,0
			c-0.93,0.93-3.45,3.45-4.39,4.39c-0.09,0.19-0.09,0.47,0,0.56c0.93,0.93,3.45,3.45,4.29,4.39c0.19,0.09,0.37,0.09,0.56,0h0.09
			C393.83,302.83,396.26,300.31,397.19,299.38"/>
		<path fill="#4D4D4F" d="M88.75,272.41c0,0,0.37-0.28,0.56-0.19c0.19,0.09,0.09,0.56,0.09,0.56c-0.47,3.64-2.24,16.71-3.17,33.78
			c-0.09,2.8-0.28,5.6-0.37,8.4v0.93l0.56-0.75c2.33-3.08,6.44-4.85,11.39-4.85c3.08,0,10.55,1.03,12.23,10.45
			c0.56,3.36-0.19,11.01-7.19,16.61c-2.15,1.68-8.03,4.48-14.56,4.57c-5.6,0.09-11.39-0.28-15.03-3.27
			c-2.05-1.68-3.73-4.01-4.2-10.55c0-0.56-0.09-1.21-0.09-1.87c0-0.75,0-1.12,0.09-1.77c0-0.37,0.09-0.56,0.28-0.56
			c0.09,0,0.19,0.28,0.28,0.56s0.28,0.75,0.47,1.03c3.08,6.07,13.81,7,17.45,7c7.56-0.09,10.64-2.33,12.88-5.69
			c1.31-1.87,1.77-4.2,1.4-6.25c-0.56-2.99-2.8-4.48-6.53-4.48c-5.41,0-9.52,4.29-9.52,9.99v0.75v1.68c0,0.47-0.09,0.56-0.19,0.56
			c-0.19,0-0.37-0.09-0.65-0.19l-6.72-3.92c-0.19-0.09-0.65-0.37-0.84-0.65c-0.19-0.28-0.19-0.56-0.19-1.03
			c0.09-5.97,0.19-12.79,0.37-17.08c0.47-8.59,1.12-16.99,2.15-25.1c0.09-0.56,0.19-1.12,0.37-1.4c0.19-0.28,0.56-0.75,0.84-0.93
			C80.82,279.04,88.75,272.41,88.75,272.41"/>
		<path fill="#4D4D4F" d="M383.56,314.13c1.49-1.21,6.16-5.23,8.03-6.72c0.28-0.28,0.37-0.37,0.47-0.28c0.09,0.09,0.09,0.37,0,0.65
			c-0.28,6.16-0.47,12.32-0.47,18.38V327v5.32c0.19,2.71,0.56,4.29,1.4,4.95c0.93,0.75,2.71,1.59,6.07,1.03h0.47
			c0.19,0,0.47-0.09,0.47,0c0.09,0.19-0.47,0.47-0.65,0.56v0.09c-2.71,1.31-4.95,2.05-7.09,2.15h-1.12
			c-1.96-0.09-3.92-0.93-5.41-2.33l-0.47-0.47c-0.19-0.19-0.47-0.47-0.65-0.75c-1.03-1.49-1.59-2.61-1.59-4.85
			c-0.09-2.15,0-13.81,0.09-17.36c0-0.28,0-0.65,0.09-0.84C383.38,314.31,383.38,314.31,383.56,314.13"/>
		<path fill="#4D4D4F" d="M313.38,332.42c-2.05,1.59-4.67,2.24-7.09,1.87c-3.08-0.47-4.85-1.68-4.76-3.55
			c0.09-1.96,1.49-2.99,4.2-3.17c2.05-0.19,4.57,1.31,7.65,4.29l0.28,0.28L313.38,332.42z M379.36,320.75
			c-1.68-9.43-9.15-10.45-12.23-10.45c-4.95,0-9.05,1.77-11.29,4.85l-0.56,0.75v-0.93c0.09-2.8,0.19-5.6,0.37-8.4
			c0.93-17.08,2.61-30.14,3.17-33.78c0,0,0.09-0.47-0.09-0.56c-0.19-0.19-0.56,0.19-0.56,0.19s-7.93,6.63-7.84,6.63
			c-0.28,0.28-0.75,0.75-0.84,0.93c-0.19,0.28-0.28,0.84-0.37,1.4c-0.93,8.12-1.68,16.52-2.05,25.1
			c-0.28,4.29-0.37,11.11-0.47,17.08c0,0.47,0.09,0.75,0.28,1.03s0.65,0.56,0.75,0.65l6.81,3.92c0.19,0.09,0.47,0.19,0.56,0.19
			s0.19-0.19,0.19-0.56v-1.68v-0.75c0-5.69,4.11-9.99,9.52-9.99c3.73,0,5.97,1.49,6.63,4.48c0.37,2.05-0.09,4.39-1.4,6.25
			c-2.33,3.36-5.41,5.6-12.97,5.69c-3.55,0.09-14.37-0.84-17.45-7c-0.19-0.37-0.37-0.56-0.47-0.84c-0.09-0.19-0.28-0.65-0.37-0.65
			c-0.19,0-0.19,0.19-0.19,0.56c0,0.19-0.19,0.65-0.19,0.75c-0.28,1.87-1.12,4.2-2.52,5.32c-1.49,1.21-4.67,1.4-7.19,1.03
			c-1.12-0.19-3.36-0.56-5.51-1.31l-0.37-0.09l0.09-0.28c2.15-5.32,2.24-11.57,0.19-14.84c-1.96-3.27-5.6-5.51-9.52-5.97
			c-3.83-0.37-9.52,0.19-12.6,2.61c-1.59,1.21-2.15,4.2-2.33,6.25c-0.09,0.37-0.09,0.84,0.09,0.84c0.09,0.09,0.37-0.19,0.65-0.37
			c1.4-1.12,3.73-2.61,6.35-3.17c3.08-0.56,5.79,0.09,7.19,0.84c3.45,1.87,4.01,5.13,4.11,6.07c0.09,1.03,0.09,2.05-0.19,3.17
			l-0.09,0.56l-0.37-0.37c-4.48-4.2-7.28-5.41-11.2-4.76c-1.87,0.28-4.11,1.4-5.79,3.45c-1.03,0.93-3.55,4.48-5.88,5.41
			c-4.76,1.96-25.2,1.03-28.18-0.84c-1.77-1.03-1.49-3.73-1.4-4.67v-0.09c0-0.65,0.37-6.25,0.56-9.33c0.09-2.24-0.28-3.83-1.12-4.67
			c-0.93-0.93-2.43-1.21-3.45-1.21s-2.61,0.37-4.67,2.15c-6.07,5.23-8.68,9.15-9.89,10.92c-0.19,0.19-0.37,0.56-0.56,0.65
			c-0.37,0.09-0.37-0.37-0.28-0.56c0-4.39,0.47-16.15,0.47-16.8c0.93-17.08,2.61-30.24,3.17-33.78v-0.09c0-0.28,0.09-0.56,0-0.56
			c-0.19-0.09-0.47,0.09-0.47,0.09l-8.12,6.81c-0.28,0.19-0.75,0.75-0.84,0.93c-0.19,0.28-0.28,0.84-0.37,1.4v0.19
			c-0.75,6.25-1.68,14.75-2.05,24.82c-0.56,16.15-0.56,24.08-0.28,32.38c0.09,2.15,1.12,2.8,1.77,2.89
			c0.19,0.09,2.15,0.56,2.99-0.93c4.67-8.87,8.21-13.81,14.56-20.25c0.28-0.28,0.65-0.56,1.12-0.47s0.47,0.56,0.37,1.03l-0.19,2.71
			c-0.09,1.21-0.09,2.24-0.19,4.85c-0.09,2.61,0.09,8.77,4.29,11.11c4.29,2.43,25.76,1.96,25.76,1.96c6.91,0.09,8.03-1.31,9.43-2.89
			c0.65-0.75,1.12-1.59,1.49-2.52c1.4,3.45,4.85,5.04,5.04,5.13c0,0,1.87,0.75,4.95,0.93c2.33,0.09,4.95-0.56,7.47-1.96
			c0.75-0.37,1.77-1.12,2.89-2.15l0.28-0.19l0.19,0.19c0.93,0.75,2.05,1.49,3.36,2.24c3.27,1.87,9.43,1.59,9.43,1.59
			c5.97-0.19,8.12-2.89,8.59-4.57c0.09-0.37,0.19-0.84,0.28-1.31c0.75,1.68,1.68,2.8,2.8,3.73c3.73,2.99,9.43,3.36,15.03,3.27
			c6.53-0.09,12.41-2.89,14.56-4.57C379.27,331.76,379.92,324.11,379.36,320.75"/>
		<path fill="#4D4D4F" d="M225.57,289.77c-3.27-5.04-7.84-8.59-14.47-11.2c-3.17-1.31-7-1.87-11.95-1.96c0,0-5.69-0.09-8.87-0.37
			c-1.87-0.19-3.17-0.84-4.11-1.49c-0.47-0.37-0.65-0.65-0.93-0.65c-0.37,0.09-0.37,0.93-0.37,1.77c-0.47,5.6-1.96,24.45-2.24,29.12
			c-0.19,4.29-0.28,11.11-0.37,17.08c0,0.47,0,0.65,0.19,1.03c0.19,0.19,0.56,0.56,0.75,0.65l6.81,3.92
			c0.19,0.09,0.47,0.19,0.56,0.19c0.09-0.09,0.19-0.28,0.19-0.75v-1.49l0.09-0.75l0.09-10.17l0.09-1.4
			c0.09-2.52,0.09-5.69,0.28-8.21c0.19-4.2,0.56-8.49,0.84-12.69l0,0c0.09-1.03,0.28-2.8,0.93-3.92c1.03-1.68,2.33-2.05,3.55-2.33
			c1.31-0.28,4.85-0.65,10.17,1.4c4.01,1.59,7.65,4.29,9.71,7.09c1.49,2.24,2.8,5.13,3.27,7.56c0.65,3.55,0.93,11.2-2.52,17.83
			c-2.89,5.51-7.56,9.15-14.19,10.83c-2.05,0.47-5.04,0.84-8.77,0.93c-3.64,0-17.73-1.77-20.81-9.05c-0.28-0.75-0.37-1.12-0.75-1.12
			c-0.37,0-0.47,0.47-0.56,1.12c-0.28,1.87-0.93,3.92-1.49,4.85c-0.75,1.31-1.77,4.29-12.51,4.11c-7.56-0.19-10.64-0.19-13.53-1.96
			c-1.21-0.84-1.49-2.43-1.49-3.55c0-0.47,0.75-14.56,0.93-16.24c0.09-0.56,0.09-0.93-0.19-1.12c-0.28-0.09-0.56,0.19-0.93,0.47
			c-1.4,1.21-3.83,3.17-5.23,4.48c-0.65,0.47-0.93,0.65-1.12,1.03c-0.19,0.37-0.28,0.75-0.28,1.31c-0.28,4.57-0.65,14-0.65,14
			l-0.09,0.09c-1.4,0.93-4.48,1.49-5.79,1.59c-1.4,0.09-6.63,0.09-9.89-2.05c-1.12-0.75-1.77-1.59-2.05-2.71
			c-0.28-1.49-0.09-2.8,0.65-4.11c1.03-1.59,5.69-8.31,5.69-8.31c0.47-0.75,0.47-0.93,0.37-1.31c-0.09-0.47-0.47-0.75-0.75-0.93
			c-0.56-0.47-1.68-1.12-2.89-1.96c0,0-0.84-0.56-1.12-0.65c-0.37-0.28-0.84-0.28-1.12,0.09c-1.4,1.31-6.25,8.77-5.79,16.99
			c0.28,4.76,1.96,8.21,4.2,10.27s6.16,4.29,12.51,4.11c3.08-0.19,5.88-1.31,8.21-3.45l0.28-0.19l0.19,0.19
			c0.56,0.65,1.12,1.12,1.77,1.49c4.29,2.43,14,2.43,19.13,2.43c11.11-0.09,14.47-3.45,15.49-6.44c0.65,1.12,1.4,2.05,2.24,2.8
			c4.2,3.73,12.79,4.39,17.55,4.39c7.19,0.09,13.91-0.84,18.01-2.43c3.83-1.49,8.31-3.73,12.41-9.05c4.2-5.41,6.44-12.97,6.35-21.37
			C231.35,301.25,229.86,296.3,225.57,289.77"/>
		<path fill="#4D4D4F" d="M52.45,327.28L52.45,327.28c-0.28-0.09-4.39-2.33-6.44-4.67c-1.49-1.77-2.71-3.36,0-5.79
			c0.84-0.65,2.15-1.4,3.92-2.05C50.77,319.26,52.45,327.28,52.45,327.28 M70.93,321.69c1.21-1.68,2.99-5.04,0.56-10.08
			c-2.33-5.04-7.19-7.65-14.47-7c-1.59-7-6.72-28.09-6.81-28.46s-0.47-1.31-1.12-1.68c-0.65-0.37-1.49-0.37-2.05-0.37
			c-0.75,0-3.08,0.09-4.2,1.12c-1.31,1.03-1.77,2.05-2.52,3.83c-1.31,2.99-3.45,7.75-6.25,13.81c-1.87,4.01-4.01,8.59-6.44,13.72
			c-2.99,6.35-10.73,21.18-11.48,22.68c-0.56,1.03-1.31,1.77-2.43,2.52c-1.03,0.65-3.83,0.93-5.32,0.19
			c-2.33-1.12-3.17-2.33-3.73-4.11c-0.37-1.03-0.28-2.43-0.19-2.61c0.19-2.61,2.15-4.57,2.33-4.67c0.19-0.19,0.28-0.28,0.28-0.37
			c0-0.19-0.19-0.19-0.47-0.09c-2.99,0.84-6.25,3.92-6.63,7.84c0,0.28,0,0.56,0,0.84c0,3.83,2.43,7.93,6.16,9.99
			c2.05,1.12,10.08,4.39,14.84-0.56c1.59-1.68,3.36-4.57,5.69-9.33c2.33-4.67,7.93-16.15,8.87-18.1c0.93-1.96,6.35-13.07,9.05-18.48
			l0.37-0.75l3.08,15.21c-6.53,2.52-9.43,6.25-10.64,11.57c-1.4,5.69,3.92,13.91,17.45,20.25c1.21,0.65,7.19,2.71,8.21,2.89
			c2.05,0.28,2.33-0.65,2.33-1.21c0.19-0.65-0.28-2.43-0.56-3.73c-0.37-1.68-4.29-16.89-5.79-23.42c3.92-0.28,7.09,0.47,8.96,2.99
			c1.59,2.05,1.96,4.11,1.96,5.41c0,0.75,0,0.84,0.09,0.84C70.37,322.34,70.55,322.15,70.93,321.69"/>
		<path fill="#4D4D4F" d="M124.22,302.46c0.93-0.93,2.43-2.61,3.17-3.45c0.19-0.19,0.28-0.37,0.47-0.37s0.28,0.09,0.56,0.28
			c1.12,0.84,2.89,2.33,3.55,2.89c0.47,0.47,1.87,1.96,1.96,4.48c0.09,0.56,0,1.21-0.09,1.77c-0.37,2.05-1.21,3.92-1.87,4.85
			c-0.09,0.19-0.28,0.56-0.47,0.47s-0.19-0.37-0.19-0.75c0-0.28,0-0.37,0-0.75c-0.09-1.31-0.47-2.99-1.77-4.39
			c-1.21-1.21-3.83-3.17-5.23-4.11c-0.28-0.19-0.28-0.28-0.37-0.47C123.84,302.93,123.94,302.83,124.22,302.46"/>
		<path fill="#4D4D4F" d="M283.43,319.63c0.19-0.19,0.19-0.47,0-0.65c-0.93-0.93-3.45-3.36-4.29-4.29c-0.19-0.19-0.47-0.19-0.56,0
			c-0.84,0.93-3.45,3.45-4.39,4.39c-0.09,0.19-0.09,0.37,0,0.56c0.93,0.93,3.45,3.45,4.39,4.29c0.19,0.19,0.37,0.19,0.56,0
			C279.97,323.09,282.49,320.57,283.43,319.63"/>
	</g>
	<path fill="#C32034" d="M256.34,127.2c-3.08-3.27-12.88,1.4-19.22,8.59c-5.51,6.25-8.96,15.49-8.96,15.49
		c1.4-0.19,11.2-4.95,19.88-11.76C251.3,136.9,259.42,130.46,256.34,127.2 M251.86,231.63c-10.55,3.92-27.72,7-43.4,2.89
		c-3.45-0.93-5.97-1.87-7.84-2.71c18.29,16.15,36.12,23.05,47.32,16.89c14.47-8.03,27.44-21.84,36.86-38.54
		C275.47,220.99,262.59,227.61,251.86,231.63 M237.77,173.11c-3.36-0.75-7.47,9.8-3.27,10.83c0.47,0.09,1.12,0.19,1.77,0.09
		c2.05-0.09,4.2-0.56,6.16-1.21C242.15,176.57,240.47,173.77,237.77,173.11 M210.14,129.25c4.76,2.52,4.01,9.33,5.79,15.21
		c1.68,5.97,6.63,6.44,6.63,6.44s10.08-19.41,1.49-35.09s-22.77-10.27-26.32-8.49c-4.76,2.24-23.14,14.09-32.38,39.01
		c-9.15,24.64,4.01,33.04,12.13,34.44c8.12,1.4,20.53-6.81,21-11.01c0.19-2.24-1.4-3.64-3.83-4.2s-9.05,0.84-13.25-4.11
		c-5.13-6.16,3.73-19.78,8.68-24.54C195.12,131.86,202.68,125.42,210.14,129.25 M255.12,196.07c1.12-1.21,4.57-4.57,5.79-5.69
		c0.19-0.19,0.56-0.19,0.75,0.09c1.12,1.21,4.48,4.39,5.69,5.6c0.19,0.28,0.19,0.65,0,0.84c-1.21,1.21-4.48,4.48-5.69,5.69
		c-0.19,0.19-0.56,0.19-0.75,0c-1.21-1.21-4.48-4.48-5.79-5.69C255.03,196.63,255.03,196.26,255.12,196.07 M221.71,174.98
		c-1.21,1.21-4.57,4.48-5.69,5.69c-0.19,0.19-0.56,0.19-0.75,0c-1.21-1.21-4.57-4.48-5.79-5.69c-0.19-0.28-0.19-0.56,0-0.75
		c1.12-1.21,4.57-4.57,5.79-5.69c0.19-0.19,0.56-0.19,0.75,0c1.12,1.21,4.48,4.39,5.69,5.6C221.9,174.33,221.9,174.79,221.71,174.98
		 M256.06,104.33c-1.21,1.21-4.57,4.48-5.69,5.69c-0.19,0.19-0.56,0.19-0.75,0c-1.21-1.21-4.57-4.48-5.79-5.69
		c-0.19-0.28-0.19-0.56,0-0.75c1.12-1.21,4.57-4.57,5.79-5.69c0.19-0.19,0.56-0.19,0.75,0c1.12,1.21,4.48,4.39,5.69,5.6
		C256.24,103.77,256.24,104.15,256.06,104.33 M248.96,222.2c23.33-8.49,30.61-21.28,35.84-30.14
		c11.11-18.76,11.39-39.85,10.45-45.92v-0.28c-0.56-5.13-2.05-10.27-3.17-10.27c-4.85-0.28-11.48,34.25-15.31,53.38
		c-0.37,1.96-0.65,3.92-1.77,5.97c-0.93,1.68-1.4,2.33-1.96,2.99c-0.65,0.75-1.77,1.49-1.49,0.09c8.77-46.48,14.37-71.39,19.5-81.47
		c0.56-1.12,1.12-1.77,1.77-2.05c-0.93-2.24-2.05-4.39-3.27-6.53c-27.43-49.74-100.5-62.06-141.28-39.57
		c-17.73,9.8-16.15,56.37,7.56,103.59c-2.24-13.25,0.84-25.01,7.37-38.64c8.87-18.38,37.14-44.98,58.51-36.77
		c18.2,7,11.2,35.56,11.2,35.56s12.6-16.89,22.68-17.36c5.32-0.28,14.37,3.64,3.45,21.46c-12.79,20.9-34.16,30.24-41.72,25.94
		c-6.63-3.83-6.72-11.29-7.09-13.25c-0.47-1.96-1.49-8.68-7.65-9.15c-6.16-0.47-17.17,8.03-15.77,11.85
		c1.21,3.27,9.33,0.65,13.07,2.99s5.23,5.88,3.83,12.04c-4.01,18.48-19.41,29.49-30.05,26.97c-2.52-0.65-5.04-1.59-7.28-2.99
		c3.36,5.32,6.81,10.27,10.27,15.03l3.17-5.41c0.09-0.19,0.28-0.28,0.47-0.28c6.25,0.28,13.72-2.24,17.27-5.04
		c-2.71,8.96-6.44,14.75-18.76,13.53c0.09,0.19,0.28,0.37,0.37,0.47c2.33,1.12,5.04,2.33,8.21,3.55c18.38,7,34.81-2.33,37.7-4.2
		c2.33-1.49,11.67-7,15.59-14.47c-1.49,0.19-3.08,0.28-4.67,0.28c-1.21-0.09-2.33-0.19-2.71-0.19c-1.87-0.09-11.48-1.59-5.23-16.15
		c1.12-2.61,5.32-12.69,11.39-10.45c1.77,0.65,6.25,2.33,7.75,9.43c0.28,1.21,0.47,2.33,0.56,3.55c5.69-3.55,10.17-9.24,11.29-15.49
		c1.03-5.97-0.28-9.05-1.96-9.33c-2.24-0.37-6.35,10.92-7,10.64c-0.65-0.37,0-1.87,0.56-3.64c3.92-13.35,9.71-18.38,11.67-18.38
		c1.96,0,4.57,6.16,4.57,14.28c0,12.88-7.56,27.72-19.32,33.32c-1.03,5.97-3.36,11.2-6.25,14.84
		c-7.93,10.08-25.01,20.53-46.76,15.59c-1.87-0.37-3.64-0.93-5.32-1.4c1.87,2.05,3.83,4.01,5.79,5.88c0.75,0.19,2.15,0.47,4.85,0.93
		C209.11,229.11,228.81,229.57,248.96,222.2"/>
</g>
</svg>
