<?xml version="1.0" encoding="UTF-8" standalone="no"?>
<!DOCTYPE svg PUBLIC "-//W3C//DTD SVG 1.1//EN" "http://www.w3.org/Graphics/SVG/1.1/DTD/svg11.dtd">
<svg width="100%" height="100%" viewBox="0 0 2363 2363" version="1.1" xmlns="http://www.w3.org/2000/svg" xmlns:xlink="http://www.w3.org/1999/xlink" xml:space="preserve" xmlns:serif="http://www.serif.com/" style="fill-rule:evenodd;clip-rule:evenodd;stroke-linejoin:round;stroke-miterlimit:2;">
    <g id="Layer-1" serif:id="Layer 1" transform="matrix(4.16667,0,0,4.16667,0,0)">
        <g transform="matrix(1,0,0,1,207.647,176.501)">
            <path d="M0,71.6L0,0L16.406,0C26.638,0 35.027,8.391 35.027,18.622L35.027,65.725L14.165,65.725C7.717,66.323 3.038,69.06 0,71.6" style="fill:rgb(12,163,211);"/>
        </g>
        <g transform="matrix(1,0,0,1,320.992,363.044)">
            <path d="M0,-186.965C30.671,-186.342 55.366,-161.274 55.366,-130.428C55.366,-99.184 30.023,-73.84 -1.195,-73.84C-26.812,-73.84 -52.627,-74.414 -78.319,-74.414L-78.319,-33.734C-78.319,-15.187 -93.505,0 -112.052,0L-155.417,0C-173.989,0 -189.175,-15.187 -189.175,-33.734L-189.175,-111.532L-166.073,-111.308C-157.534,-110.437 -152.53,-102.172 -152.256,-97.94L-152.256,-54.124C-152.256,-43.443 -143.493,-34.68 -132.789,-34.68L-113.346,-34.68L-113.346,-93.383C-113.346,-103.839 -104.807,-112.378 -94.375,-112.378L0,-112.378C11.129,-112.378 20.14,-120.992 20.14,-131.598C20.14,-142.228 11.129,-150.842 0,-150.842L0,-186.965Z" style="fill:rgb(224,7,133);"/>
        </g>
        <g transform="matrix(1,0,0,1,150.463,247.802)">
            <path d="M0,-71.3L18.273,-71.3L18.273,0C7.495,-9.883 -11.824,-7.592 -18.646,-6.397L-18.646,-52.678C-18.646,-62.91 -10.256,-71.3 0,-71.3" style="fill:rgb(12,163,211);"/>
        </g>
        <g transform="matrix(1,0,0,1,545.119,363.043)">
            <path d="M0,-186.542L21.81,-186.542L21.81,-18.398C21.81,-8.265 13.519,0 3.411,0L-14.986,0L-14.986,-171.556C-14.986,-179.795 -8.238,-186.542 0,-186.542" style="fill:rgb(12,163,211);"/>
        </g>
        <g transform="matrix(1,0,0,1,0.0002,363.043)">
            <path d="M0,-186.542L77.098,-186.542C95.67,-186.542 110.855,-171.356 110.855,-152.809L110.855,-33.734C110.855,-15.187 95.67,0 77.098,0L0,0L0,-186.542ZM34.229,-151.391L54.893,-151.391C66.269,-151.391 75.58,-142.078 75.58,-130.702L75.58,-55.368C75.58,-43.991 66.269,-34.68 54.893,-34.68L34.229,-34.68L34.229,-151.391Z" style="fill:rgb(12,163,211);"/>
        </g>
        <g transform="matrix(1,0,0,1,368.666,366.106)">
            <path d="M0,-89.649C4.281,-81.41 6.722,-72.048 6.722,-62.116C6.722,-34.98 -11.377,-12.075 -36.123,-4.781C-52.403,0 -69.954,-3.062 -86.734,-3.062C-96.592,-3.062 -104.658,-11.128 -104.658,-20.987L-104.234,-68.737L-67.391,-69.135L-67.391,-57.534L-67.366,-57.534L-67.366,-57.51C-67.366,-46.481 -58.429,-37.544 -47.399,-37.544C-36.371,-37.544 -27.409,-46.481 -27.409,-57.51C-27.409,-63.036 -29.649,-68.016 -33.259,-71.625C-15.958,-71.576 -4.531,-83.725 0,-89.649" style="fill:rgb(12,163,211);"/>
        </g>
        <g transform="matrix(1,0,0,1,311.235,316.637)">
            <path d="M0,-19.692L9.833,-19.692C15.26,-19.692 19.69,-15.26 19.69,-9.833C19.69,-4.43 15.26,0 9.833,0C4.43,0 0,-4.43 0,-9.833L0,-19.692Z" style="fill:rgb(224,7,133);"/>
        </g>
        <g transform="matrix(1,0,0,1,398.068,363.044)">
            <path d="M0,-65.153L35.5,-65.153L35.5,-17.751C35.5,-7.992 27.508,0 17.748,0L0,0L0,-65.153Z" style="fill:rgb(12,163,211);"/>
        </g>
        <g transform="matrix(1,0,0,1,508.724,363.044)">
            <path d="M0,-82.728C-8.189,-70.928 -20.412,-65.701 -35.5,-65.153L-35.5,-17.751C-35.5,-7.992 -27.508,0 -17.749,0L0,0L0,-82.728Z" style="fill:rgb(12,163,211);"/>
        </g>
        <g transform="matrix(1,0,0,1,433.568,183.697)">
            <path d="M0,58.603C-21.187,58.329 -24.446,55.565 -35.5,65.151L-35.5,26.189C-35.5,9.36 -18.123,-6.548 -3.462,-6.548L7.841,-6.548C2.963,-3.861 0.198,0.696 0,7.442L0,58.603Z" style="fill:rgb(12,163,211);"/>
        </g>
        <g transform="matrix(1,0,0,1,397.943,175.556)">
            <path d="M0,112.253L74.583,112.253C95.196,112.253 112.075,95.399 112.075,74.761L112.075,37.741C112.075,18.224 96.966,2.042 77.846,0.373L62.734,0C53.1,0 45.232,7.892 45.232,17.526L45.232,34.829L45.06,35.053L55.365,35.053C66.719,35.053 75.979,44.338 75.979,55.691C75.979,67.019 66.719,76.304 55.365,76.304C42.769,76.304 30.346,76.529 17.873,76.529C8.04,76.529 0,84.569 0,94.403L0,112.253Z" style="fill:rgb(224,7,133);"/>
        </g>
        <g transform="matrix(1,0,0,1,163.035,391.373)">
            <path d="M0,-19.691L9.859,-19.691C15.261,-19.691 19.692,-15.259 19.692,-9.858C19.692,-4.429 15.261,0 9.859,0C4.432,0 0,-4.429 0,-9.858L0,-19.691Z" style="fill:rgb(224,7,133);"/>
        </g>
        <g transform="matrix(1,0,0,1,192.412,391.373)">
            <path d="M0,-19.691L9.833,-19.691C15.26,-19.691 19.666,-15.259 19.666,-9.858C19.666,-4.429 15.26,0 9.833,0C4.43,0 0,-4.429 0,-9.858L0,-19.691Z" style="fill:rgb(224,7,133);"/>
        </g>
        <g transform="matrix(1,0,0,1,264.83,241.303)">
            <path d="M0,-65.15L46.404,-65.15L46.404,-25.592C40.18,-23.674 35.599,-17.849 35.599,-11.028L35.599,0L0,0L0,-65.15Z" style="fill:rgb(12,163,211);"/>
        </g>
    </g>
</svg>
