<?xml version="1.0" encoding="UTF-8" standalone="no"?>
<!DOCTYPE svg PUBLIC "-//W3C//DTD SVG 1.1//EN" "http://www.w3.org/Graphics/SVG/1.1/DTD/svg11.dtd">
<svg width="100%" height="100%" viewBox="0 0 400 400" version="1.1" xmlns="http://www.w3.org/2000/svg" xmlns:xlink="http://www.w3.org/1999/xlink" xml:space="preserve" xmlns:serif="http://www.serif.com/" style="fill-rule:evenodd;clip-rule:evenodd;stroke-linejoin:round;stroke-miterlimit:2;">
    <g id="Layer-1" serif:id="Layer 1" transform="matrix(1,0,0,1,-0.0005,-0.0003)">
        <g transform="matrix(1,0,0,1,59.1382,175.884)">
            <path d="M0,-156.97L16.199,-156.97L16.199,-73.379C16.199,-60.394 16.4,-51.936 16.803,-48.007C17.518,-41.198 19.228,-35.933 21.934,-32.215C24.639,-28.494 28.206,-26.636 32.633,-26.636C36.388,-26.636 39.452,-27.952 41.822,-30.582C44.193,-33.217 45.813,-36.863 46.685,-41.531C47.558,-46.199 47.994,-56.219 47.994,-71.589L47.994,-156.97L64.193,-156.97L64.193,-75.906C64.193,-55.199 63.491,-40.232 62.083,-31.003C60.679,-21.775 57.509,-14.3 52.579,-8.581C47.648,-2.858 41.144,0 33.067,0C24.677,0 18.129,-2.367 13.422,-7.107C8.712,-11.843 5.298,-18.511 3.179,-27.11C1.06,-35.705 0,-51.551 0,-74.642L0,-156.97Z" style="fill-rule:nonzero;"/>
        </g>
        <g transform="matrix(1,0,0,1,0,-83.081)">
            <rect x="140.333" y="226.749" width="15.396" height="29.583"/>
        </g>
        <g transform="matrix(1,0,0,1,214.397,79.9759)">
            <path d="M0,32.214L-11.108,-25.057L-22.011,32.214L0,32.214ZM29.89,93.276L12.278,93.276L5.231,58.323L-26.981,58.323L-33.633,93.276L-50.903,93.276L-19.569,-61.062L-2.363,-61.062L29.89,93.276Z" style="fill-rule:nonzero;"/>
        </g>
        <g transform="matrix(1,0,0,1,0,-83.081)">
            <rect x="252.721" y="226.749" width="15.396" height="29.583"/>
        </g>
        <g transform="matrix(1,0,0,1,284.114,18.9135)">
            <path d="M0,154.338L0,0L59.708,0L59.708,26.109L16.198,26.109L16.198,60.325L56.629,60.325L56.629,86.328L16.198,86.328L16.198,128.229L61.181,128.229L61.181,154.338L0,154.338Z" style="fill-rule:nonzero;"/>
        </g>
        <g transform="matrix(1,0,0,1,76.7197,284.983)">
            <path d="M0,23.067C-2.689,24.671 -5.065,25.475 -7.131,25.475C-8.662,25.475 -9.974,24.691 -11.068,23.117C-12.165,21.546 -12.712,19.669 -12.712,17.479C-12.712,12.902 -11.39,7.162 -8.744,0.257C-5.975,3.197 -3.153,6.715 -0.278,10.816C2.594,14.916 4.031,17.618 4.031,18.914C4.031,20.078 2.687,21.461 0,23.067M4.279,-15.12C1.88,-18.195 -0.642,-21.065 -3.287,-23.73L-9.364,-29.675C-10.316,-26.6 -11.39,-22.824 -12.588,-18.347C-13.789,-13.872 -14.739,-10.06 -15.441,-6.918L-13.209,-4.458C-15.731,3.743 -17.478,10.545 -18.45,15.941C-19.42,21.341 -19.906,26.843 -19.906,32.445C-19.906,38.595 -18.956,43.516 -17.053,47.207C-15.153,50.897 -12.588,52.742 -9.364,52.742C-5.643,52.742 -1.674,50.897 2.542,47.207C7.089,43.245 9.942,38.666 11.1,33.47C11.72,30.805 12.226,27.373 12.621,23.167C13.013,18.966 13.208,14.814 13.208,10.713C13.208,5.177 12.566,0.548 11.286,-3.175C10.004,-6.902 7.667,-10.88 4.279,-15.12" style="fill-rule:nonzero;"/>
        </g>
        <g transform="matrix(1,0,0,1,71.2007,220.146)">
            <path d="M0,6.971L8.806,15.172L15.627,-5.74L4.341,-16.196L-0.869,0.41L-10.046,-7.175L-16.495,12.711L-4.961,23.167L0,6.971Z" style="fill-rule:nonzero;"/>
        </g>
        <g transform="matrix(1,0,0,1,166.823,364.481)">
            <path d="M0,-6.152L-9.178,-13.737L-15.627,6.15L-4.093,16.606L0.868,0.409L9.673,8.61L16.495,-12.302L5.208,-22.758L0,-6.152Z" style="fill-rule:nonzero;"/>
        </g>
        <g transform="matrix(0.746557,0.665322,0.665322,-0.746557,205.085,358.374)">
            <path d="M6.276,-6.019L25.381,-6.019L15.801,16.475L-3.444,16.352L6.276,-6.019Z" style="fill-rule:nonzero;"/>
        </g>
        <g transform="matrix(-0.75082,-0.660507,-0.660507,0.75082,263.283,215.002)">
            <path d="M-15.832,-16.224L3.413,-16.224L-6.256,6.126L-25.411,5.932L-15.832,-16.224Z" style="fill-rule:nonzero;"/>
        </g>
        <g transform="matrix(1,0,0,1,274.012,294.929)">
            <path d="M0,-8.921C-2.669,-11.686 -4.001,-14.539 -4.001,-17.48C-4.001,-18.709 -3.691,-19.768 -3.07,-20.657C-2.451,-21.543 -1.729,-21.989 -0.9,-21.989C0.918,-21.989 2.736,-20.35 4.557,-17.069C6.375,-13.789 8.029,-9.209 9.518,-3.333C5.837,-4.289 2.664,-6.15 0,-8.921M43.19,-50.692C44.099,-53.973 44.917,-57.696 45.641,-61.866C46.362,-66.032 46.911,-70.305 47.283,-74.68C43.935,-77.001 41.494,-79.12 39.966,-81.035C38.229,-83.151 37.361,-85.341 37.361,-87.596C37.525,-89.371 37.609,-90.466 37.609,-90.876L34.757,-93.336C32.482,-86.161 30.87,-79.974 29.92,-74.782C29.176,-70.682 28.804,-66.614 28.804,-62.584L32.772,-58.278L40.275,11.326L17.951,11.326L17.951,8.968C17.951,-7.909 16.392,-22.314 13.271,-34.238C10.147,-46.165 6.499,-52.128 2.324,-52.128C-1.356,-52.128 -4.673,-47.875 -7.63,-39.363C-10.584,-30.858 -12.063,-21.306 -12.063,-10.714C-12.063,-3.605 -10.832,1.808 -8.374,5.536C-5.913,9.259 -1.604,12.248 4.557,14.504C-1.272,13.478 -6.461,12.556 -11.008,11.736C-12.704,11.465 -14.503,11.326 -16.403,11.326L-23.225,11.326C-26.491,10.165 -28.939,8.73 -30.574,7.02C-32.206,5.314 -34.573,1.587 -37.674,-4.153C-42.223,-12.284 -45.735,-18.263 -48.216,-22.093C-51.358,-26.943 -54.19,-30.462 -56.711,-32.65C-59.233,-34.837 -61.858,-35.931 -64.587,-35.931C-68.144,-35.931 -71.313,-33.881 -74.106,-29.78C-76.895,-25.681 -79.429,-19.324 -81.702,-10.714C-80.008,-11.329 -78.715,-11.722 -77.827,-11.891C-76.937,-12.064 -75.957,-12.149 -74.88,-12.149C-71.284,-12.149 -67.605,-10.473 -63.843,-7.126C-59.586,-3.366 -54.955,2.784 -49.952,11.326L-89.715,11.326C-89.75,-0.589 -90.306,-9.688 -91.406,-15.839C-92.544,-22.194 -94.662,-28.276 -97.763,-34.086L-102.724,-9.689C-100.452,-5.314 -99.003,-2.238 -98.383,-0.463C-97.185,2.751 -96.358,6.68 -95.902,11.326L-124.18,11.326L-124.18,10.198C-124.18,2.272 -124.946,-4.802 -126.475,-11.022C-128.005,-17.238 -130.175,-22.74 -132.986,-27.525L-136.458,0.152C-134.31,3.502 -132.49,7.705 -131.001,12.761C-129.679,17.205 -129.017,20.793 -129.017,23.524C-129.017,28.994 -132.45,36.785 -139.311,46.896C-144.232,54.142 -148.117,59.096 -150.969,61.761C-153.822,64.426 -156.674,65.758 -159.527,65.758C-162.173,65.758 -164.634,65.041 -166.906,63.605C-169.181,62.171 -172.177,59.402 -175.898,55.303L-178.502,61.658C-170.773,70.474 -165.088,76.35 -161.449,79.29C-157.274,82.706 -153.368,84.415 -149.729,84.415C-146.67,84.415 -142.992,81.61 -138.691,76.009C-134.806,70.95 -131.416,64.991 -128.521,58.12C-125.628,51.255 -124.18,45.736 -124.18,41.566L-124.18,39.209L47.717,39.209L47.717,11.326L40.958,-52.128L43.19,-50.692Z" style="fill-rule:nonzero;"/>
        </g>
        <g transform="matrix(1,0,0,1,344.053,269.043)">
            <path d="M0,12.814C-0.537,2.702 -1.488,-9.259 -2.853,-23.065L-6.573,-59.353C-8.89,-52.108 -10.688,-45.941 -11.968,-40.852C-13.25,-35.759 -13.891,-32.151 -13.891,-30.036C-13.891,-28.6 -13.643,-25.967 -13.146,-22.142C-11.742,-11.207 -10.728,-1.792 -10.107,6.098C-9.487,13.995 -8.972,21.974 -8.558,30.036C-8.146,38.1 -7.937,44.218 -7.937,48.384C-7.937,53.854 -8.433,60.96 -9.426,69.707L-5.705,72.167C-3.225,63.695 -1.55,56.943 -0.682,51.922C0.187,46.897 0.621,41.348 0.621,35.263C0.621,28.087 0.413,20.605 0,12.814" style="fill-rule:nonzero;"/>
        </g>
    </g>
</svg>
