<?xml version="1.0" encoding="UTF-8" standalone="no"?>
<!DOCTYPE svg PUBLIC "-//W3C//DTD SVG 1.1//EN" "http://www.w3.org/Graphics/SVG/1.1/DTD/svg11.dtd">
<svg width="100%" height="100%" viewBox="0 0 1667 1667" version="1.1" xmlns="http://www.w3.org/2000/svg" xmlns:xlink="http://www.w3.org/1999/xlink" xml:space="preserve" xmlns:serif="http://www.serif.com/" style="fill-rule:evenodd;clip-rule:evenodd;stroke-linejoin:round;stroke-miterlimit:2;">
    <g id="Layer-1" serif:id="Layer 1" transform="matrix(4.16667,0,0,4.16667,-21.126,0)">
        <g>
            <text x="176.53px" y="191.484px" style="font-family:'Arial-BoldMT', 'Arial', sans-serif;font-weight:700;font-size:65px;fill:rgb(35,31,32);">K</text>
            <text x="178.35px" y="258.564px" style="font-family:'Arial-BoldMT', 'Arial', sans-serif;font-weight:700;font-size:65px;fill:rgb(35,31,32);">S</text>
            <text x="176.53px" y="325.644px" style="font-family:'Arial-BoldMT', 'Arial', sans-serif;font-weight:700;font-size:65px;fill:rgb(35,31,32);">A</text>
        </g>
        <text x="155.044px" y="116.451px" style="font-family:'Arial-BoldMT', 'Arial', sans-serif;font-weight:700;font-size:31px;fill:rgb(35,31,32);">ﺔﯾدوﻌﺳﻟا</text>
        <g transform="matrix(1,0,0,1,190.82,37.1821)">
            <path d="M0,-17.541C0.69,-16.505 0.64,-15.62 0.213,-14.552C0.213,-14.979 0.427,-15.406 0,-15.62C-0.214,-15.62 -0.214,-15.406 -0.214,-15.193C-0.214,-15.62 -0.427,-15.833 -0.641,-16.046C-1.067,-14.766 -1.067,-13.698 -1.067,-12.417C-1.495,-12.631 -1.067,-13.485 -1.495,-13.271C-2.135,-13.058 -1.708,-11.99 -1.495,-11.35C-2.989,-14.125 -3.203,-17.541 -1.921,-20.53C-1.067,-22.238 0.427,-23.732 1.921,-25.227C2.135,-25.44 2.562,-26.081 1.921,-26.081C1.281,-26.294 0.854,-25.654 0.64,-25.013C0.427,-25.227 0.427,-25.227 0.213,-25.44C0,-24.8 -0.427,-24.159 -0.641,-23.519C-0.641,-23.732 -0.641,-24.373 -0.854,-24.373C-1.495,-24.159 -1.495,-23.092 -1.708,-22.451C-1.708,-22.665 -1.708,-23.305 -1.921,-23.092C-2.562,-22.665 -2.562,-21.598 -2.775,-20.743C-2.775,-20.957 -2.562,-21.598 -2.989,-21.598C-3.629,-21.384 -3.416,-20.53 -3.416,-19.89C-3.416,-20.103 -3.629,-20.316 -3.629,-20.316C-4.27,-19.676 -4.056,-18.822 -4.056,-18.182C-4.483,-18.395 -4.27,-19.036 -4.483,-19.036C-5.124,-18.395 -4.91,-17.541 -5.124,-16.687C-5.337,-17.114 -4.91,-17.754 -5.337,-18.182C-5.764,-17.541 -5.764,-16.9 -5.978,-16.26C-6.191,-16.9 -5.764,-17.541 -6.191,-17.968C-6.618,-17.328 -6.191,-16.474 -6.404,-15.833C-6.832,-17.754 -6.832,-19.676 -6.191,-21.384C-5.764,-22.238 -5.337,-23.092 -4.697,-23.946C-4.056,-24.8 -3.203,-25.44 -2.349,-26.081C-1.067,-27.148 0.64,-27.361 1.708,-28.643C1.281,-29.069 0.64,-28.429 0.213,-28.856C0,-28.643 0,-28.643 -0.214,-28.429C-0.214,-28.643 -0.214,-28.856 -0.427,-28.856C-0.854,-28.856 -1.067,-28.643 -1.281,-28.429C-1.281,-28.643 -1.281,-28.856 -1.495,-28.856C-1.921,-28.856 -2.135,-28.429 -2.349,-28.215C-2.349,-28.429 -2.562,-28.643 -2.562,-28.643C-2.775,-28.429 -3.416,-28.429 -3.416,-27.789C-3.629,-28.002 -3.629,-28.002 -3.843,-28.215C-4.056,-28.002 -4.27,-27.789 -4.27,-27.361C-4.27,-27.575 -4.27,-27.789 -4.483,-27.789C-4.697,-27.575 -4.91,-27.361 -4.91,-26.935L-5.124,-27.148C-5.337,-26.721 -5.551,-26.294 -5.551,-25.867C-5.551,-26.081 -5.764,-26.294 -5.764,-26.294C-6.191,-25.867 -5.978,-25.227 -6.191,-24.8C-6.618,-27.361 -5.551,-29.71 -3.203,-30.35C-0.854,-31.205 1.708,-31.845 4.27,-30.564C4.27,-30.564 4.483,-30.777 4.483,-30.991C4.27,-31.631 3.629,-32.913 2.775,-32.058C2.775,-32.272 2.775,-32.485 2.989,-32.699C2.562,-33.339 1.921,-32.485 1.494,-32.699L1.708,-32.913C1.281,-33.553 0.854,-32.699 0.427,-32.913L0.64,-33.125C0.64,-33.339 0.427,-33.339 0.213,-33.339C0,-33.125 -0.641,-33.125 -0.641,-32.485C-0.641,-32.699 -0.427,-33.339 -0.854,-33.339C-1.495,-33.125 -1.708,-32.272 -2.135,-31.845C-2.349,-32.699 -2.135,-33.553 -1.281,-33.98C0.64,-35.261 2.562,-35.474 4.697,-34.833C5.978,-34.407 6.618,-33.339 7.259,-32.272C7.686,-33.125 7.899,-33.98 8.112,-35.047C8.112,-34.833 8.112,-34.62 8.326,-34.407C8.753,-35.261 8.54,-36.328 8.966,-37.182C9.394,-36.328 9.18,-35.261 9.607,-34.407C9.82,-34.62 9.82,-34.833 9.82,-35.047C10.034,-33.98 10.247,-33.125 10.674,-32.272C11.314,-33.766 12.596,-34.62 14.09,-35.047C16.438,-35.474 20.28,-34.833 20.066,-31.845C19.641,-32.272 19.427,-33.125 18.786,-33.339C18.359,-33.339 18.573,-32.699 18.573,-32.485C18.573,-33.125 17.933,-33.125 17.719,-33.339C17.505,-33.553 17.292,-33.339 17.292,-33.125C17.292,-32.913 17.505,-32.913 17.505,-32.699C17.078,-32.913 16.651,-33.339 16.225,-32.913C16.438,-32.913 16.438,-32.699 16.438,-32.485C16.011,-32.699 15.584,-32.913 15.157,-32.913C14.729,-32.699 15.37,-32.272 15.157,-32.058C14.943,-32.485 14.517,-32.272 14.304,-32.272C13.876,-31.845 13.021,-30.564 13.235,-30.564C15.798,-31.631 18.786,-31.205 21.135,-30.35C21.988,-30.137 23.057,-29.283 23.696,-28.429C24.124,-27.361 24.337,-26.081 24.124,-24.8C23.696,-25.227 24.124,-25.867 23.696,-26.294C23.696,-26.294 23.483,-26.081 23.483,-25.867C23.483,-26.721 22.843,-27.148 22.415,-27.789C22.202,-27.789 22.202,-27.575 22.202,-27.361C22.202,-27.789 21.988,-28.002 21.774,-28.215L21.348,-27.789C21.348,-28.429 20.708,-28.429 20.494,-28.643C20.494,-28.643 20.28,-28.429 20.28,-28.215C20.066,-28.429 19.854,-28.643 19.641,-28.856C19.214,-28.856 19,-28.429 18.573,-28.856C18.359,-29.069 18.146,-28.856 18.146,-28.429C17.933,-28.643 17.933,-28.643 17.719,-28.856C17.292,-28.429 16.651,-29.069 16.225,-28.643C18.146,-26.935 20.922,-26.294 22.629,-23.946C24.337,-21.384 25.19,-18.608 24.337,-15.833C24.124,-16.474 24.55,-17.328 24.124,-17.968C23.696,-17.541 24.124,-16.9 23.91,-16.26C23.696,-16.9 23.696,-17.541 23.271,-18.182C22.843,-17.754 23.057,-17.114 23.057,-16.687C22.843,-17.541 23.057,-18.395 22.415,-19.036C22.202,-19.036 22.415,-18.395 21.988,-18.182C21.988,-18.822 22.202,-19.676 21.562,-20.316C21.562,-20.316 21.348,-20.103 21.348,-19.89C21.348,-20.53 21.562,-21.384 20.922,-21.598C20.494,-21.598 20.708,-20.957 20.708,-20.743C20.494,-21.598 20.494,-22.665 19.854,-23.092C19.641,-23.305 19.641,-22.665 19.641,-22.451C19.427,-23.092 19.427,-24.159 18.786,-24.373C18.573,-24.373 18.573,-23.732 18.573,-23.519C18.359,-24.159 17.933,-24.8 17.719,-25.44C17.505,-25.227 17.505,-25.227 17.292,-25.013C17.078,-25.654 16.651,-26.081 16.011,-26.294C15.798,-26.294 15.798,-25.867 15.798,-25.654C17.078,-23.946 18.786,-22.665 19.854,-20.957C21.348,-17.968 20.922,-14.338 19.427,-11.35C19.641,-11.99 20.066,-13.058 19.427,-13.271C19,-13.485 19.427,-12.631 19,-12.417C19,-13.698 19,-14.766 18.573,-16.046C18.359,-15.833 18.146,-15.62 18.146,-15.193C18.146,-15.406 18.146,-15.62 17.933,-15.62C17.505,-15.406 17.719,-14.979 17.719,-14.552C17.292,-15.62 17.719,-16.9 18.146,-17.968C18.146,-18.395 17.933,-18.822 17.719,-19.249C17.505,-19.036 17.292,-18.822 17.292,-18.395C17.078,-19.249 17.292,-20.316 16.864,-21.17C16.438,-20.957 16.651,-20.53 16.651,-20.316C16.225,-20.957 16.864,-21.811 16.225,-22.238C16.011,-22.238 16.225,-21.598 15.798,-21.384C15.798,-22.024 16.011,-22.878 15.37,-23.305C15.157,-23.305 15.157,-22.665 15.157,-22.451C15.157,-23.092 14.943,-24.159 14.304,-24.373C14.09,-24.373 14.304,-23.732 14.09,-23.519L13.662,-23.519C13.662,-23.732 13.662,-23.946 13.449,-23.946C13.235,-23.946 13.021,-23.946 13.021,-23.732C13.235,-23.092 14.09,-23.092 14.304,-22.451C14.304,-21.811 14.943,-21.598 14.943,-20.957C14.729,-21.384 14.09,-21.598 13.662,-21.17C14.729,-20.743 15.798,-20.103 15.584,-18.822C15.584,-19.249 15.157,-19.676 14.729,-19.89C14.517,-19.89 14.09,-19.89 14.09,-19.676C14.943,-18.822 15.798,-17.968 15.584,-16.687C15.584,-17.114 15.37,-17.541 14.943,-17.754C14.729,-17.754 14.517,-17.541 14.517,-17.541C15.157,-16.26 15.798,-14.979 15.37,-13.485C15.37,-13.912 15.584,-14.552 15.157,-14.338C14.729,-14.338 14.943,-13.698 14.943,-13.271L14.729,-13.485C14.304,-12.845 14.943,-12.417 14.729,-11.777C14.517,-11.136 14.517,-10.709 14.304,-10.069C14.09,-10.709 14.517,-11.563 14.09,-12.204C13.662,-11.35 13.662,-10.283 13.662,-9.215C13.662,-9.428 13.662,-9.642 13.449,-9.642C13.021,-9.428 13.449,-8.788 13.021,-8.575C13.235,-10.069 12.596,-11.563 12.596,-13.058C12.809,-13.058 13.021,-13.058 13.021,-13.271C13.021,-13.698 13.235,-14.552 12.809,-14.552C12.382,-14.766 12.809,-13.698 12.382,-13.485C12.382,-14.338 12.382,-15.193 11.741,-15.406C11.314,-15.62 11.955,-14.766 11.314,-14.552C10.46,-14.338 10.887,-15.193 10.46,-15.62C9.82,-7.08 10.034,-2.563 10.46,5.978C10.46,7.045 11.101,8.112 10.887,9.18C10.674,9.607 10.46,10.248 10.674,10.674C10.674,11.315 10.887,11.956 11.314,12.596C11.528,13.45 10.674,14.304 10.887,15.158C11.528,16.652 12.169,18.147 13.235,19.641L4.697,19.641C5.551,17.933 7.045,16.438 6.832,14.518C6.832,13.877 6.405,13.236 6.618,12.596C7.686,10.888 6.832,9.393 7.045,7.472C7.259,7.045 7.472,6.618 7.472,6.191C7.899,-2.563 7.899,-6.867 7.472,-15.62C7.045,-15.406 7.259,-14.979 7.259,-14.766C7.045,-14.338 6.405,-14.552 6.191,-14.979C6.405,-14.979 6.405,-15.193 6.405,-15.406C5.978,-16.046 5.978,-15.193 5.764,-15.193C5.551,-14.766 5.337,-14.125 5.551,-13.485C5.124,-13.698 5.551,-14.766 5.124,-14.552C4.697,-14.552 4.911,-13.698 4.911,-13.271C4.911,-13.058 5.124,-13.058 5.337,-13.058C5.337,-11.563 4.697,-10.069 4.911,-8.575C4.483,-8.788 4.911,-9.428 4.483,-9.642C4.27,-9.642 4.27,-9.428 4.27,-9.215C4.27,-10.283 4.27,-11.35 3.843,-12.204C3.416,-11.563 3.843,-10.709 3.629,-10.069C3.416,-10.709 3.416,-11.136 3.202,-11.777C2.989,-12.417 3.629,-12.845 3.202,-13.485L2.989,-13.271C2.989,-13.698 3.202,-14.338 2.775,-14.338C2.349,-14.552 2.562,-13.912 2.562,-13.485C2.349,-14.766 2.349,-16.26 3.416,-17.328C3.629,-17.541 3.416,-17.754 3.202,-17.754C2.562,-17.754 2.562,-17.114 2.349,-16.687C2.135,-17.968 2.989,-18.822 3.843,-19.676C3.843,-19.89 3.416,-19.89 3.202,-19.89C2.775,-19.676 2.349,-19.249 2.349,-18.822C2.135,-20.103 3.202,-20.743 4.27,-21.17C3.843,-21.598 3.202,-21.384 2.989,-20.957C3.416,-21.811 3.843,-22.451 4.697,-23.092C4.483,-23.305 4.27,-23.519 3.843,-23.519C4.27,-23.732 3.843,-24.159 4.27,-24.373C4.27,-24.586 4.057,-24.586 3.843,-24.586C3.202,-24.159 2.775,-23.305 2.775,-22.451C2.775,-22.665 2.775,-23.305 2.562,-23.305C1.921,-22.878 2.135,-22.024 2.135,-21.384C1.708,-21.598 2.135,-22.238 1.708,-22.238C1.067,-21.811 1.708,-20.957 1.281,-20.316C1.281,-20.53 1.494,-20.957 1.067,-21.17C0.64,-20.316 0.854,-19.249 0.64,-18.395C0.64,-18.822 0.427,-19.036 0.213,-19.249C0,-18.608 -0.427,-18.182 0,-17.541" style="fill:rgb(35,31,32);fill-rule:nonzero;"/>
        </g>
        <g transform="matrix(1,0,0,1,181.213,80.7346)">
            <path d="M0,-28.822C7.065,-26.754 13.237,-22.844 19.001,-18.574C31.169,-29.248 48.248,-33.305 64.047,-30.316C48.889,-29.889 33.091,-25.833 21.989,-15.158C24.978,-12.384 27.967,-9.607 30.955,-6.832C31.81,-8.114 31.81,-9.821 32.878,-11.102C33.944,-12.384 35.652,-13.023 37.146,-12.81C38.854,-12.384 40.136,-10.675 39.708,-8.967C39.067,-6.405 36.293,-5.764 33.944,-7.259C33.518,-7.473 32.878,-5.978 33.304,-5.338C34.157,-3.843 35.866,-2.989 37.574,-2.349C38.854,-4.27 41.845,-4.27 43.125,-2.349C44.192,-0.854 43.552,1.281 42.057,1.921C38.001,3.629 33.731,0.853 30.529,-1.708C28.607,1.281 23.483,4.483 20.494,0.64C20.067,0 19.854,-0.854 20.067,-1.708C20.494,-3.417 22.203,-4.697 23.911,-4.27C24.765,-4.056 25.618,-3.843 26.046,-2.989C26.472,-2.349 25.832,-1.281 26.686,-1.494C27.326,-1.494 28.394,-2.563 28.181,-2.776C26.046,-6.832 21.989,-8.967 18.788,-11.956C15.585,-8.967 11.956,-6.832 9.394,-2.989C8.967,-2.349 10.248,-1.494 10.889,-1.494C11.742,-1.494 11.315,-3.417 12.383,-3.843C13.45,-4.27 14.518,-4.484 15.585,-4.056C16.866,-3.417 17.72,-1.922 17.506,-0.427C17.08,1.708 14.731,2.561 12.81,2.348C10.461,1.921 8.327,0.426 7.046,-1.708C4.057,0.64 0.641,2.989 -3.416,2.561C-4.27,2.348 -5.124,1.921 -5.55,1.067C-6.404,-0.427 -5.977,-2.349 -4.483,-3.417C-2.988,-4.27 -1.067,-3.843 0,-2.349C1.708,-2.989 3.416,-3.843 4.27,-5.338C4.697,-5.978 4.057,-7.473 3.416,-7.259C2.349,-6.832 1.068,-6.192 -0.213,-6.618C-1.494,-7.259 -2.348,-8.754 -2.134,-10.248C-1.708,-12.169 0,-13.237 1.922,-12.81C2.989,-12.384 3.843,-11.956 4.697,-11.102C5.765,-9.821 5.765,-8.114 6.619,-6.832C9.607,-9.607 12.596,-12.384 15.585,-15.158C4.483,-25.833 -11.315,-29.889 -26.472,-30.316C-17.719,-32.024 -8.753,-31.384 0,-28.822" style="fill:rgb(35,31,32);fill-rule:nonzero;"/>
        </g>
        <g transform="matrix(0,-1,-1,0,200,354.167)">
            <path d="M-22.916,-22.917C-35.573,-22.917 -45.833,-12.656 -45.833,0C-45.833,12.657 -35.573,22.916 -22.916,22.916C-10.26,22.916 0,12.657 0,0C0,-12.656 -10.26,-22.917 -22.916,-22.917" style="fill:rgb(35,31,32);fill-rule:nonzero;"/>
        </g>
    </g>
</svg>
