<?xml version="1.0" encoding="UTF-8" standalone="no"?>
<!DOCTYPE svg PUBLIC "-//W3C//DTD SVG 1.1//EN" "http://www.w3.org/Graphics/SVG/1.1/DTD/svg11.dtd">
<svg width="100%" height="100%" viewBox="0 0 400 400" version="1.1" xmlns="http://www.w3.org/2000/svg" xmlns:xlink="http://www.w3.org/1999/xlink" xml:space="preserve" xmlns:serif="http://www.serif.com/" style="fill-rule:evenodd;clip-rule:evenodd;stroke-linejoin:round;stroke-miterlimit:2;">
    <g id="Layer-1" serif:id="Layer 1" transform="matrix(1,0,0,1,-6.82884,-5.51945)">
        <g>
            <text x="18.919px" y="226.066px" style="font-family:'Arial-BoldMT', 'Arial', sans-serif;font-weight:700;font-size:77.554px;">ﺔﻣﯾ</text>
            <text x="104.306px" y="226.066px" style="font-family:'Arial-BoldMT', 'Arial', sans-serif;font-weight:700;font-size:77.554px;">ـ</text>
            <text x="107.074px" y="226.066px" style="font-family:'Arial-BoldMT', 'Arial', sans-serif;font-weight:700;font-size:77.554px;">ـــﺧ</text>
            <text x="193.702px" y="226.066px" style="font-family:'Arial-BoldMT', 'Arial', sans-serif;font-weight:700;font-size:77.554px;">ﻟ<tspan x="214.903px " y="226.066px ">ا</tspan></text>
            <text x="259.312px" y="226.066px" style="font-family:'Arial-BoldMT', 'Arial', sans-serif;font-weight:700;font-size:77.554px;">س<tspan x="332.09px 351.928px " y="226.066px 226.066px ">أر</tspan></text>
        </g>
        <g>
            <text x="14.653px" y="135.095px" style="font-family:'Arial-BoldMT', 'Arial', sans-serif;font-weight:700;font-size:77.554px;">ت<tspan x="68.042px 87.879px " y="135.095px 135.095px ">ار</tspan></text>
            <text x="124.454px" y="135.095px" style="font-family:'Arial-BoldMT', 'Arial', sans-serif;font-weight:700;font-size:77.554px;">ﺎ</text>
            <text x="142.602px" y="135.095px" style="font-family:'Arial-BoldMT', 'Arial', sans-serif;font-weight:700;font-size:77.554px;">ـ</text>
            <text x="154.452px" y="135.095px" style="font-family:'Arial-BoldMT', 'Arial', sans-serif;font-weight:700;font-size:77.554px;">ــــــ<tspan x="246.586px " y="135.095px ">ـ</tspan>ــ</text>
            <text x="292.652px" y="135.095px" style="font-family:'Arial-BoldMT', 'Arial', sans-serif;font-weight:700;font-size:77.554px;">ﻣ<tspan x="327.866px 368.609px " y="135.095px 135.095px ">ﻹا</tspan></text>
        </g>
        <g transform="matrix(1,0,0,1,20.6548,331.458)">
            <path d="M0,-62.624L9.107,-62.624L9.107,-22.544C9.163,-18.309 10.348,-15.081 12.662,-12.865C14.922,-10.533 17.828,-9.369 21.381,-9.369C24.935,-9.369 27.87,-10.533 30.183,-12.865C32.442,-15.081 33.6,-18.309 33.655,-22.544L33.655,-62.624L42.763,-62.624L42.763,-21.556C42.652,-15.023 40.603,-9.839 36.612,-6.008C32.595,-2.058 27.518,-0.057 21.381,0C15.354,-0.057 10.317,-2.058 6.273,-5.999C2.146,-9.829 0.054,-15.008 0,-21.531L0,-62.624Z" style="fill-rule:nonzero;"/>
        </g>
        <g transform="matrix(1,0,0,1,108.623,291.069)">
            <path d="M0,17.643L-8.707,-9.53L-8.871,-9.53L-17.577,17.643L0,17.643ZM2.6,25.987L-20.219,25.987L-24.838,39.878L-34.493,39.878L-12.626,-22.235L-4.993,-22.235L16.875,39.878L7.261,39.878L2.6,25.987Z" style="fill-rule:nonzero;"/>
        </g>
        <g transform="matrix(1,0,0,1,139.447,330.947)">
            <path d="M0,-62.113L38.433,-62.113L38.433,-53.255L9.107,-53.255L9.107,-35.482L34.141,-35.482L34.141,-27.141L9.107,-27.141L9.107,-8.858L38.433,-8.858L38.433,0L0,0L0,-62.113Z" style="fill-rule:nonzero;"/>
        </g>
        <g transform="matrix(1,0,0,1,198.329,330.947)">
            <path d="M0,-14.212C3.808,-14.212 6.896,-11.125 6.896,-7.316L6.896,-6.897C6.896,-3.088 3.808,0 0,0C-3.809,0 -6.896,-3.088 -6.896,-6.897L-6.896,-7.316C-6.896,-11.125 -3.809,-14.212 0,-14.212" style="fill-rule:nonzero;"/>
        </g>
        <g transform="matrix(1,0,0,1,234.139,303.72)">
            <path d="M0,-7.658L13.817,-7.658C17.238,-7.715 19.802,-8.741 21.513,-10.735C23.194,-12.585 24.037,-14.863 24.037,-17.57C23.981,-20.814 22.976,-23.165 21.016,-24.617C19.473,-25.898 17.238,-26.539 14.314,-26.539L0,-26.539L0,-7.658ZM-9.106,-34.886L14.399,-34.886C19.411,-34.886 23.502,-33.522 26.669,-30.796C30.481,-27.7 32.469,-23.282 32.633,-17.545C32.522,-9.113 28.65,-3.373 21.016,-0.334L34.941,27.228L24.119,27.228L11.667,0.682L0,0.682L0,27.228L-9.106,27.228L-9.106,-34.886Z" style="fill-rule:nonzero;"/>
        </g>
        <g transform="matrix(1,0,0,1,310.018,291.069)">
            <path d="M0,17.643L-8.707,-9.53L-8.871,-9.53L-17.577,17.643L0,17.643ZM2.6,25.987L-20.219,25.987L-24.839,39.878L-34.495,39.878L-12.626,-22.235L-4.993,-22.235L16.876,39.878L7.261,39.878L2.6,25.987Z" style="fill-rule:nonzero;"/>
        </g>
        <g transform="matrix(1,0,0,1,336.106,330.947)">
            <path d="M0,-62.113L9.106,-62.113L9.106,-30.118L9.29,-30.118L34.059,-62.113L44.873,-62.113L25.595,-37.615L46.896,0L36.075,0L19.682,-30.373L9.106,-18.915L9.106,0L0,0L0,-62.113Z" style="fill-rule:nonzero;"/>
        </g>
    </g>
</svg>
