<?xml version="1.0" encoding="UTF-8" standalone="no"?>
<!DOCTYPE svg PUBLIC "-//W3C//DTD SVG 1.1//EN" "http://www.w3.org/Graphics/SVG/1.1/DTD/svg11.dtd">
<svg width="100%" height="100%" viewBox="0 0 1000 1000" version="1.1" xmlns="http://www.w3.org/2000/svg" xmlns:xlink="http://www.w3.org/1999/xlink" xml:space="preserve" xmlns:serif="http://www.serif.com/" style="fill-rule:evenodd;clip-rule:evenodd;stroke-linejoin:round;stroke-miterlimit:2;">
    <g transform="matrix(4.4284,0,0,4.4284,-1032.05,-604.867)">
        <g transform="matrix(2.16118,0,0,2.16118,-337.246,-317.638)">
            <circle cx="290.434" cy="273.547" r="0.69"/>
        </g>
        <g transform="matrix(2.16118,0,0,2.16118,-306.102,-317.638)">
            <circle cx="290.434" cy="273.547" r="0.69"/>
        </g>
        <path d="M300.111,275.038L297.524,275.038L304.4,255.046L307.601,255.046L314.477,275.038L311.481,275.038L309.038,269.109L302.554,269.109L300.111,275.038ZM305.75,258.95C305.775,258.868 305.851,258.812 305.936,258.812C306.022,258.812 306.097,258.868 306.122,258.95C306.721,260.922 308.561,266.984 308.561,266.984L303.311,266.984C303.311,266.984 305.151,260.922 305.75,258.95Z"/>
        <path d="M330.049,275.038L330.049,255.935L343.889,255.935L343.889,258.857L332.971,258.857L332.971,264.025L343.889,264.025L343.889,266.948L332.971,266.948L332.971,272.115L343.889,272.115L343.889,275.038L330.049,275.038Z"/>
        <path d="M361.753,265.018L364.647,260.152C365.02,259.524 365.676,259.119 366.404,259.067C367.132,259.014 367.839,259.321 368.298,259.889C369.124,260.91 370.558,262.682 371.604,263.976C372.205,264.718 372.325,265.74 371.914,266.601C371.503,267.463 370.633,268.012 369.678,268.012L362.263,268.012L362.263,277.085C362.263,277.913 361.59,278.585 360.763,278.585C359.935,278.585 359.263,277.913 359.263,277.085C359.263,277.085 359.263,270.416 359.263,267.671C359.263,266.259 360.363,265.104 361.753,265.018ZM365.247,265.012L368.584,265.012L366.661,262.634L365.247,265.012Z"/>
        <path d="M422.407,251.723C422.406,251.702 422.393,251.684 422.375,251.674C422.356,251.664 422.334,251.664 422.316,251.674C420.928,252.448 419.776,253.536 418.925,255.025C419.993,258.057 420.777,262.857 419.996,268.308C419.993,268.329 420,268.351 420.017,268.366C420.033,268.38 420.055,268.386 420.076,268.381C423.466,267.445 423.119,259.825 422.407,251.723Z"/>
        <path d="M391.974,264.783L391.246,264.087C390.564,263.436 390.179,262.533 390.18,261.59C390.181,260.647 390.569,259.746 391.253,259.097C392.107,258.287 393.137,257.309 393.791,256.687C394.705,255.819 396.116,255.749 397.111,256.522C398.006,257.217 399.424,258.319 399.424,258.319C400.078,258.826 400.197,259.769 399.689,260.423C399.181,261.077 398.238,261.196 397.584,260.688L395.577,259.129L393.319,261.272C393.23,261.356 393.18,261.473 393.18,261.595C393.18,261.717 393.23,261.833 393.318,261.918L394.59,263.132L399.155,263.132C399.983,263.132 400.655,263.804 400.655,264.632C400.655,265.46 399.983,266.132 399.155,266.132L394.707,266.132C394.238,266.744 393.465,267.829 392.883,269.041C392.397,270.056 391.975,271.162 392.249,272.09C392.435,272.72 393.04,273.13 394.106,273.395C395.738,273.801 398.201,273.78 401.808,273.187C402.625,273.053 403.397,273.607 403.531,274.424C403.666,275.241 403.111,276.013 402.294,276.147C398.121,276.833 395.271,276.776 393.382,276.306C390.923,275.695 389.801,274.392 389.372,272.94C388.909,271.372 389.356,269.457 390.179,267.743C390.732,266.59 391.431,265.533 391.974,264.783Z"/>
        <path d="M269.732,268.621L269.732,255.935L272.732,255.935L272.732,268.621C272.732,271.001 274.661,272.93 277.041,272.93C279.421,272.93 281.35,271.001 281.35,268.621L281.35,255.986L284.35,255.986L284.35,268.621C284.35,272.657 281.078,275.93 277.041,275.93C273.004,275.93 269.732,272.657 269.732,268.621Z"/>
        <path d="M380.44,265.091C380.454,265.077 380.472,265.07 380.491,265.07C380.509,265.07 380.527,265.077 380.541,265.091C380.813,265.363 382.112,266.662 382.385,266.934C382.398,266.948 382.405,266.966 382.405,266.984C382.405,267.003 382.398,267.021 382.385,267.035C382.112,267.307 380.813,268.606 380.541,268.878C380.527,268.892 380.509,268.899 380.491,268.899C380.472,268.899 380.454,268.892 380.44,268.878C380.168,268.606 378.869,267.307 378.597,267.035C378.583,267.021 378.576,267.003 378.576,266.984C378.576,266.966 378.583,266.948 378.597,266.934C378.869,266.662 380.168,265.363 380.44,265.091Z"/>
        <g transform="matrix(1,0,0,1,29.4235,0)">
            <path d="M380.44,265.091C380.454,265.077 380.472,265.07 380.491,265.07C380.509,265.07 380.527,265.077 380.541,265.091C380.813,265.363 382.112,266.662 382.385,266.934C382.398,266.948 382.405,266.966 382.405,266.984C382.405,267.003 382.398,267.021 382.385,267.035C382.112,267.307 380.813,268.606 380.541,268.878C380.527,268.892 380.509,268.899 380.491,268.899C380.472,268.899 380.454,268.892 380.44,268.878C380.168,268.606 378.869,267.307 378.597,267.035C378.583,267.021 378.576,267.003 378.576,266.984C378.576,266.966 378.583,266.948 378.597,266.934C378.869,266.662 380.168,265.363 380.44,265.091Z"/>
        </g>
    </g>
    <g transform="matrix(4.4284,0,0,4.4284,-1032.05,-604.867)">
        <path d="M416.428,185.573C416.453,185.547 416.488,185.533 416.524,185.533C416.56,185.533 416.594,185.547 416.619,185.573C417.199,186.155 420.223,189.194 420.8,189.773C420.853,189.826 420.853,189.911 420.8,189.964C420.223,190.543 417.199,193.583 416.619,194.165C416.594,194.19 416.56,194.204 416.524,194.204C416.488,194.204 416.453,194.19 416.428,194.165C415.849,193.583 412.824,190.543 412.247,189.964C412.195,189.911 412.195,189.826 412.247,189.773C412.824,189.194 415.849,186.155 416.428,185.573Z"/>
        <path d="M283.408,190.887C283.375,190.86 283.353,190.821 283.349,190.778C283.345,190.736 283.359,190.693 283.387,190.661C284.035,189.925 287.373,186.126 288.009,185.403C288.037,185.371 288.076,185.352 288.117,185.35C288.159,185.348 288.2,185.362 288.231,185.391C288.808,185.918 291.345,188.235 291.889,188.732C291.948,188.786 292.037,188.787 292.097,188.734C292.711,188.195 295.839,185.45 296.449,184.915C296.508,184.863 296.596,184.863 296.655,184.915C297.31,185.495 300.902,188.671 301.586,189.277C301.649,189.332 301.656,189.428 301.603,189.492C301.032,190.184 298.084,193.753 297.533,194.42C297.482,194.482 297.394,194.495 297.327,194.451C296.611,193.981 292.814,191.486 292.106,191.02C292.041,190.978 291.954,190.99 291.903,191.048C291.422,191.602 289.141,194.226 288.641,194.801C288.586,194.864 288.493,194.873 288.427,194.822C287.732,194.277 284.139,191.459 283.408,190.887Z"/>
        <g transform="matrix(1,0,0,1,124.618,8.66784)">
            <path d="M283.408,190.887C283.375,190.86 283.353,190.821 283.349,190.778C283.345,190.736 283.359,190.693 283.387,190.661C284.035,189.925 287.373,186.126 288.009,185.403C288.037,185.371 288.076,185.352 288.117,185.35C288.159,185.348 288.2,185.362 288.231,185.391C288.808,185.918 291.345,188.235 291.889,188.732C291.948,188.786 292.037,188.787 292.097,188.734C292.711,188.195 295.839,185.45 296.449,184.915C296.508,184.863 296.596,184.863 296.655,184.915C297.31,185.495 300.902,188.671 301.586,189.277C301.649,189.332 301.656,189.428 301.603,189.492C301.032,190.184 298.084,193.753 297.533,194.42C297.482,194.482 297.394,194.495 297.327,194.451C296.611,193.981 292.814,191.486 292.106,191.02C292.041,190.978 291.954,190.99 291.903,191.048C291.422,191.602 289.141,194.226 288.641,194.801C288.586,194.864 288.493,194.873 288.427,194.822C287.732,194.277 284.139,191.459 283.408,190.887Z"/>
        </g>
        <g transform="matrix(1,0,0,1,-50.5365,2.42482)">
            <path d="M283.408,190.887C283.375,190.86 283.353,190.821 283.349,190.778C283.345,190.736 283.359,190.693 283.387,190.661C284.035,189.925 287.373,186.126 288.009,185.403C288.037,185.371 288.076,185.352 288.117,185.35C288.159,185.348 288.2,185.362 288.231,185.391C288.808,185.918 291.345,188.235 291.889,188.732C291.948,188.786 292.037,188.787 292.097,188.734C292.711,188.195 295.839,185.45 296.449,184.915C296.508,184.863 296.596,184.863 296.655,184.915C297.31,185.495 300.902,188.671 301.586,189.277C301.649,189.332 301.656,189.428 301.603,189.492C301.032,190.184 298.084,193.753 297.533,194.42C297.482,194.482 297.394,194.495 297.327,194.451C296.611,193.981 292.814,191.486 292.106,191.02C292.041,190.978 291.954,190.99 291.903,191.048C291.422,191.602 289.141,194.226 288.641,194.801C288.586,194.864 288.493,194.873 288.427,194.822C287.732,194.277 284.139,191.459 283.408,190.887Z"/>
        </g>
        <path d="M298.001,219.921L296.784,212.59C288.544,226.791 275.5,209.923 292.391,197.826C293.766,196.838 295.628,196.879 296.958,197.926C303.416,202.954 302.311,216.528 301.537,232.192L254.709,232.192C252.936,230.001 252.048,226.716 251.811,222.625C250.987,225.879 249.762,228.359 247.87,229.554L235.297,226.534C235.396,222.873 236.406,219.414 238.326,216.157C241.022,211.885 244.389,208.618 248.616,206.643L248.558,202.147L252.492,196.247C253.461,205.43 253.984,215.551 257.332,219.729L298.001,219.921ZM249.867,211.167C250.735,212.523 251.173,214.727 250.705,218.707C250.705,218.707 247.566,218.447 245.027,218.237C244.495,218.193 244.041,217.833 243.878,217.324C243.715,216.816 243.874,216.26 244.28,215.914C246.638,213.91 249.867,211.167 249.867,211.167ZM291.54,204.356C292.522,204.725 293.31,205.278 293.896,206.023C294.482,206.768 294.866,207.704 295.04,208.84C290.531,210.286 285.913,207.559 291.54,204.356Z"/>
        <path d="M317.711,208.058L313.86,216.204C313.86,216.204 319.219,223.425 320.463,225.102C320.624,225.318 320.658,225.603 320.553,225.851C318.682,230.173 314.862,233.728 310.034,236.433C309.794,236.567 309.521,236.63 309.247,236.615C307.769,236.533 302.855,236.261 302.855,236.261C302.855,236.261 301.013,235.775 300.418,235.618C300.387,235.61 300.353,235.621 300.333,235.647C300.312,235.672 300.309,235.708 300.325,235.737C305.786,245.668 323.617,250.685 324.795,225.556C325.11,218.838 323.36,212.803 317.711,208.058Z"/>
        <path d="M438.724,190.134C436.406,192.402 434.862,195.389 434.349,199.332C434.846,202.276 436.016,205.063 437.843,207.696L438.132,219.105L428.964,219.144L428.754,208.987L423.994,215.551L424.092,218.964L419.613,219.122L419.645,217.11L420.952,215.581L420.843,208.172C418.707,209.774 417.003,212.01 416.027,215.32L416.061,219.375L409.235,219.392L409.368,215.99L411.583,212.59L411.434,208.022C409.005,209.002 406.864,211.415 405.017,215.295L405.077,219.288L336.616,219.214L335.29,190.345C332.709,191.834 331.153,194.255 329.99,197.033L332.106,232.192L403.779,232.192L405.746,229.276L407.236,232.192L415.711,232.192L416.871,229.426L418.142,232.192L426.205,232.192L427.628,229.315L428.589,232.192L439.838,232.192C443.678,232.527 443.132,220.798 441.984,207.413L447.01,200.512L439.226,192.988L438.724,190.134Z"/>
        <path d="M457.552,192.988C455.358,195.556 453.69,199.462 452.205,203.836C453.628,209.708 454.946,219.836 454.513,232.192C460.41,231.596 459.109,211.444 457.552,192.988Z"/>
    </g>
    <g transform="matrix(4.4284,0,0,4.4284,-1032.05,-604.867)">
        <g transform="matrix(1,0,0,1,-0.0702466,-3.11957e-10)">
            <path d="M364.158,313.938C364.137,313.938 364.117,313.93 364.102,313.915C364.087,313.9 364.079,313.88 364.079,313.858C364.079,313.28 364.079,309.722 364.079,309.087C364.079,309.063 364.089,309.041 364.108,309.026C364.126,309.011 364.15,309.005 364.174,309.009C366.435,309.455 368.697,309.558 370.958,309.021C371.033,309.003 371.085,308.937 371.085,308.86C371.085,307.187 371.085,289.909 371.085,288.65C371.085,288.61 371.118,288.578 371.158,288.578C371.721,288.578 375.398,288.578 375.961,288.578C376.001,288.578 376.033,288.61 376.033,288.65C376.033,289.919 376.033,307.531 376.033,312.589C376.033,313.334 375.429,313.938 374.684,313.938C371.746,313.938 364.967,313.938 364.158,313.938Z"/>
        </g>
        <path d="M298.036,299.005L307.072,299.005L307.072,288.578L312.038,288.578L312.038,313.938L307.072,313.938L307.072,302.937L298.036,302.937L298.036,313.938L293.07,313.938L293.07,288.578L298.036,288.578L298.036,299.005Z"/>
        <g transform="matrix(1,0,0,1,111.89,0)">
            <path d="M298.036,299.005L307.072,299.005L307.072,288.578L312.038,288.578L312.038,313.938L307.072,313.938L307.072,302.937L298.036,302.937L298.036,313.938L293.07,313.938L293.07,288.578L298.036,288.578L298.036,299.005Z"/>
        </g>
        <path d="M287.058,293.635L282.999,294.977C278.871,287.236 266.032,296.599 281.888,299.296C293.557,301.281 287.405,313.041 281.461,313.748C273.737,314.667 270.51,312.167 269.065,308.126L272.182,306.121C276.857,314.981 290.627,307.192 278.526,302.738C275.956,301.792 273.246,301.1 271.864,299.8C268.957,297.065 269.335,293.409 271.083,291.459C274.663,287.463 285.511,287.128 287.058,293.635Z"/>
        <g transform="matrix(1,0,0,1,63.283,0)">
            <path d="M319.19,313.893C319.18,313.92 319.155,313.938 319.126,313.938C318.782,313.938 316.673,313.938 316.201,313.938C316.18,313.938 316.159,313.928 316.147,313.91C316.134,313.892 316.131,313.87 316.137,313.849C316.654,312.29 323.811,290.677 324.459,288.719C324.487,288.635 324.566,288.578 324.655,288.578L329.064,288.578C329.152,288.578 329.231,288.634 329.259,288.717C329.928,290.659 337.377,312.282 337.916,313.848C337.923,313.869 337.92,313.892 337.907,313.91C337.895,313.927 337.874,313.938 337.852,313.938C337.253,313.938 334.013,313.938 334.013,313.938L331.066,307.117L321.587,307.117C321.587,307.117 319.398,313.303 319.19,313.893ZM326.101,293.679C326.109,293.655 326.132,293.638 326.158,293.638C326.184,293.637 326.207,293.653 326.216,293.677C326.721,294.991 330.228,304.113 330.228,304.113L322.466,304.113C322.466,304.113 325.641,294.999 326.101,293.679Z"/>
        </g>
        <g transform="matrix(1,0,0,1,-0.282953,0)">
            <path d="M319.19,313.893C319.18,313.92 319.155,313.938 319.126,313.938C318.782,313.938 316.673,313.938 316.201,313.938C316.18,313.938 316.159,313.928 316.147,313.91C316.134,313.892 316.131,313.87 316.137,313.849C316.654,312.29 323.811,290.677 324.459,288.719C324.487,288.635 324.566,288.578 324.655,288.578L329.064,288.578C329.152,288.578 329.231,288.634 329.259,288.717C329.928,290.659 337.377,312.282 337.916,313.848C337.923,313.869 337.92,313.892 337.907,313.91C337.895,313.927 337.874,313.938 337.852,313.938C337.253,313.938 334.013,313.938 334.013,313.938L331.066,307.117L321.587,307.117C321.587,307.117 319.398,313.303 319.19,313.893ZM326.101,293.679C326.109,293.655 326.132,293.638 326.158,293.638C326.184,293.637 326.207,293.653 326.216,293.677C326.721,294.991 330.228,304.113 330.228,304.113L322.466,304.113C322.466,304.113 325.641,294.999 326.101,293.679Z"/>
        </g>
        <path d="M355.14,288.578C359.009,288.59 362.145,291.734 362.145,295.605C362.145,298.855 359.934,301.593 356.936,302.395L361.632,313.938L357.058,313.938L352.458,302.633L346.591,302.633L346.591,313.938L342.017,313.938L342.017,288.578L355.118,288.578L355.14,288.578ZM346.557,300.108L346.557,292.301L353.342,292.301L353.368,292.301C355.51,292.315 357.246,294.058 357.246,296.204C357.246,298.359 355.497,300.108 353.342,300.108L346.557,300.108Z"/>
    </g>
</svg>
