<?xml version="1.0" encoding="UTF-8" standalone="no"?>
<!DOCTYPE svg PUBLIC "-//W3C//DTD SVG 1.1//EN" "http://www.w3.org/Graphics/SVG/1.1/DTD/svg11.dtd">
<svg width="100%" height="100%" viewBox="0 0 579 320" version="1.1" xmlns="http://www.w3.org/2000/svg" xmlns:xlink="http://www.w3.org/1999/xlink" xml:space="preserve" xmlns:serif="http://www.serif.com/" style="fill-rule:evenodd;clip-rule:evenodd;stroke-linejoin:round;stroke-miterlimit:2;">
    <g transform="matrix(1,0,0,1,-10.79,-49.16)">
        <path d="M93.16,343.24C86.792,343.233 80.456,342.348 74.33,340.61C70.381,339.494 67.634,335.864 67.634,331.76C67.634,326.715 71.785,322.564 76.83,322.564C77.675,322.564 78.517,322.68 79.33,322.91C85.392,324.639 91.725,325.219 98,324.62L98.49,324.57C105.18,323.92 117.65,322.7 124.05,314.26C126.31,311.26 127.16,307.8 129.27,298.17C131.027,290.199 131.919,282.062 131.93,273.9C131.935,268.862 136.082,264.72 141.12,264.72C141.12,264.72 141.12,264.72 141.12,264.72C146.161,264.72 150.31,268.869 150.31,273.91C150.31,273.913 150.31,273.917 150.31,273.92C150.295,283.4 149.262,292.851 147.23,302.11C144.91,312.66 143.51,319.01 138.69,325.37C127.44,340.23 108.39,342.08 100.26,342.87L99.78,342.92C97.56,343.133 95.353,343.24 93.16,343.24Z" style="fill:white;fill-rule:nonzero;"/>
    </g>
    <g transform="matrix(1,0,0,1,-10.79,-49.16)">
        <path d="M48.4,363.37C27.776,363.348 10.812,346.384 10.79,325.76L10.79,273.91C10.953,268.98 15.052,265.013 19.985,265.013C24.918,265.013 29.017,268.98 29.18,273.91L29.18,325.76C29.177,325.906 29.175,326.052 29.175,326.198C29.175,336.748 37.856,345.428 48.405,345.428C58.954,345.428 67.635,336.748 67.635,326.198C67.635,326.052 67.633,325.906 67.63,325.76L67.63,273.91C67.793,268.98 71.892,265.013 76.825,265.013C81.758,265.013 85.857,268.98 86.02,273.91L86.02,325.76C85.993,346.386 69.026,363.348 48.4,363.37Z" style="fill:white;fill-rule:nonzero;"/>
    </g>
    <g transform="matrix(1,0,0,1,-10.79,-49.16)">
        <path d="M512.1,263.48C491.61,264.63 476.05,282.54 476.05,303.05L476.05,359.45C476.05,364.03 479.18,368.28 483.7,369.01C484.209,369.096 484.724,369.14 485.24,369.14C490.287,369.14 494.44,364.987 494.44,359.94L494.44,354.73C494.44,345.99 501.86,338.86 510.55,339.73C514.764,340.139 519.016,339.858 523.14,338.9C540.338,334.832 552.586,319.35 552.586,301.677C552.586,280.694 535.32,263.427 514.336,263.427C513.604,263.427 512.871,263.448 512.14,263.49L512.1,263.48ZM514.29,321.48C503.401,321.48 494.44,312.519 494.44,301.63C494.44,290.741 503.401,281.78 514.29,281.78C525.179,281.78 534.14,290.741 534.14,301.63C534.145,312.527 525.187,321.499 514.29,321.51L514.29,321.48Z" style="fill:white;fill-rule:nonzero;"/>
    </g>
    <g transform="matrix(1,0,0,1,-10.79,-49.16)">
        <path d="M575.57,338.18C570.49,338.18 562.43,330.24 562.43,325.18L562.43,249.11C562.43,244.03 562.34,239.91 567.43,239.91C572.52,239.91 580.82,251.49 580.82,256.56L580.82,329C580.81,334.07 580.65,338.18 575.57,338.18Z" style="fill:white;fill-rule:nonzero;"/>
    </g>
    <g transform="matrix(1,0,0,1,-10.79,-49.16)">
        <path d="M447.54,338.18C442.46,338.18 434.39,330.24 434.39,325.18L434.39,249.11C434.39,244.03 434.31,239.91 439.39,239.91C444.47,239.91 452.79,251.49 452.79,256.56L452.79,329C452.78,334.07 452.61,338.18 447.54,338.18Z" style="fill:white;fill-rule:nonzero;"/>
    </g>
    <g transform="matrix(1,0,0,1,-10.79,-49.16)">
        <path d="M415.8,240C411.28,240.74 404.38,250 404.38,254.61L404.38,319.8L288.5,319.8C283.749,319.8 279.84,315.891 279.84,311.14L279.84,264.89C279.84,260.31 276.71,256.07 272.19,255.33C271.681,255.244 271.166,255.2 270.65,255.2C265.603,255.2 261.45,259.353 261.45,264.4L261.45,311.14C261.45,315.891 257.541,319.8 252.79,319.8L226.42,319.8C221.84,319.8 217.6,322.92 216.86,327.45C216.775,327.956 216.732,328.467 216.732,328.98C216.732,334.026 220.884,338.179 225.93,338.18L413.39,338.18C418.536,338.18 422.77,333.946 422.77,328.8L422.77,249.11C422.77,243.53 421.56,239.1 415.8,240Z" style="fill:white;fill-rule:nonzero;"/>
    </g>
    <g transform="matrix(1,0,0,1,-10.79,-49.16)">
        <path d="M381.27,302.87C381.27,281.316 363.534,263.58 341.98,263.58C320.426,263.58 302.69,281.316 302.69,302.87C302.69,324.424 320.426,342.16 341.98,342.16C341.987,342.16 341.993,342.16 342,342.16C342.81,342.16 343.6,342.08 344.4,342.04L344.4,355.36C344.397,355.461 344.395,355.562 344.395,355.663C344.395,360.71 348.548,364.863 353.595,364.863C358.642,364.863 362.795,360.71 362.795,355.663C362.795,355.562 362.793,355.461 362.79,355.36L362.79,336.16C374.273,329.007 381.273,316.399 381.27,302.87ZM342,319.6C341.884,319.602 341.768,319.603 341.653,319.603C330.714,319.603 321.713,310.602 321.713,299.663C321.713,288.724 330.714,279.723 341.653,279.723C352.591,279.723 361.593,288.724 361.593,299.663C361.593,300.88 361.481,302.094 361.26,303.29C359.561,300.715 356.675,299.162 353.59,299.162C348.549,299.162 344.401,303.309 344.4,308.35L344.4,319.35C343.605,319.479 342.804,319.562 342,319.6Z" style="fill:white;fill-rule:nonzero;"/>
    </g>
    <g transform="matrix(1,0,0,1,-10.79,-49.16)">
        <path d="M196.5,264.72C176.452,264.742 159.962,281.232 159.94,301.28L159.94,358.42C160.103,363.35 164.202,367.317 169.135,367.317C174.068,367.317 178.167,363.35 178.33,358.42L178.33,332.12C187.33,337.87 198.94,340.98 212.08,340.98C212.93,340.98 213.81,340.9 214.67,340.88L214.67,358.42C214.833,363.35 218.932,367.317 223.865,367.317C228.798,367.317 232.897,363.35 233.06,358.42L233.06,301.28C233.038,281.232 216.548,264.742 196.5,264.72ZM180.94,309.27C179.502,306.686 178.626,303.826 178.37,300.88C178.479,290.999 186.638,282.929 196.52,282.929C206.477,282.929 214.671,291.123 214.671,301.08C214.671,301.147 214.671,301.213 214.67,301.28L214.67,322.47C199.13,323 186.07,318.08 180.94,309.27Z" style="fill:white;fill-rule:nonzero;"/>
    </g>
    <g transform="matrix(1,0,0,1,-10.79,-49.16)">
        <path d="M584.62,220.63L573.05,220.63C573.26,218.804 573.89,217.052 574.89,215.51C576.568,212.991 579.101,211.162 582.02,210.36C584.018,209.818 585.416,207.99 585.416,205.92C585.416,203.396 583.339,201.319 580.815,201.319C580.408,201.319 580.003,201.373 579.61,201.48C574.529,202.895 570.123,206.09 567.2,210.48C565.221,213.519 564.047,217.012 563.79,220.63L559.2,220.63C559.129,220.627 559.057,220.625 558.986,220.625C556.462,220.625 554.386,222.702 554.386,225.225C554.386,227.748 556.462,229.825 558.986,229.825C559.057,229.825 559.129,229.823 559.2,229.82L584.62,229.82C587.06,229.706 589.006,227.668 589.006,225.225C589.006,222.782 587.06,220.744 584.62,220.63Z" style="fill:white;fill-rule:nonzero;"/>
    </g>
    <g transform="matrix(0.707107,0.707107,-0.707107,0.707107,268.5,-227.5)">
        <path d="M363.94,240.94C363.94,239.836 363.044,238.94 361.94,238.94L347.9,238.94C346.796,238.94 345.9,239.836 345.9,240.94L345.9,254.98C345.9,256.084 346.796,256.98 347.9,256.98L361.94,256.98C363.044,256.98 363.94,256.084 363.94,254.98L363.94,240.94Z" style="fill:white;"/>
    </g>
    <g transform="matrix(0.707107,0.707107,-0.707107,0.707107,260.5,-208.18)">
        <path d="M336.61,240.94C336.61,239.836 335.714,238.94 334.61,238.94L320.57,238.94C319.466,238.94 318.57,239.836 318.57,240.94L318.57,254.98C318.57,256.084 319.466,256.98 320.57,256.98L334.61,256.98C335.714,256.98 336.61,256.084 336.61,254.98L336.61,240.94Z" style="fill:white;"/>
    </g>
    <g transform="matrix(0.707107,0.707107,-0.707107,0.707107,324.06,-145.12)">
        <path d="M292.28,349.19C292.28,348.086 291.384,347.19 290.28,347.19L276.24,347.19C275.136,347.19 274.24,348.086 274.24,349.19L274.24,363.23C274.24,364.334 275.136,365.23 276.24,365.23L290.28,365.23C291.384,365.23 292.28,364.334 292.28,363.23L292.28,349.19Z" style="fill:white;"/>
    </g>
    <g transform="matrix(0.707107,0.707107,-0.707107,0.707107,316.06,-125.8)">
        <path d="M264.95,349.19C264.95,348.086 264.054,347.19 262.95,347.19L248.91,347.19C247.806,347.19 246.91,348.086 246.91,349.19L246.91,363.23C246.91,364.334 247.806,365.23 248.91,365.23L262.95,365.23C264.054,365.23 264.95,364.334 264.95,363.23L264.95,349.19Z" style="fill:white;"/>
    </g>
    <g transform="matrix(0.707107,0.707107,-0.707107,0.707107,282.2,-44.05)">
        <path d="M149.34,349.19C149.34,348.086 148.444,347.19 147.34,347.19L133.3,347.19C132.196,347.19 131.3,348.086 131.3,349.19L131.3,363.23C131.3,364.334 132.196,365.23 133.3,365.23L147.34,365.23C148.444,365.23 149.34,364.334 149.34,363.23L149.34,349.19Z" style="fill:white;"/>
    </g>
    <g transform="matrix(0.707107,0.707107,-0.707107,0.707107,274.19,-24.73)">
        <path d="M122.01,349.19C122.01,348.086 121.114,347.19 120.01,347.19L105.97,347.19C104.866,347.19 103.97,348.086 103.97,349.19L103.97,363.23C103.97,364.334 104.866,365.23 105.97,365.23L120.01,365.23C121.114,365.23 122.01,364.334 122.01,363.23L122.01,349.19Z" style="fill:white;"/>
    </g>
    <g transform="matrix(0.707107,0.707107,-0.707107,0.707107,178.93,-10.68)">
        <path d="M57.42,241.23C57.42,240.126 56.524,239.23 55.42,239.23L41.38,239.23C40.276,239.23 39.38,240.126 39.38,241.23L39.38,255.27C39.38,256.374 40.276,257.27 41.38,257.27L55.42,257.27C56.524,257.27 57.42,256.374 57.42,255.27L57.42,241.23Z" style="fill:white;"/>
    </g>
    <rect x="222.02" y="0" width="166" height="39.75" style="fill:rgb(31,160,88);"/>
    <rect x="154.63" y="0" width="67.39" height="117.4" style="fill:rgb(204,52,56);"/>
    <rect x="222.02" y="77.07" width="166" height="40.13" style="fill:rgb(17,17,18);"/>
    <rect x="222.02" y="39.94" width="166" height="36.94" style="fill:white;"/>
</svg>
