<svg id="Layer_1" data-name="Layer 1" xmlns="http://www.w3.org/2000/svg" viewBox="0 0 578.43 319.98"><defs><style>.cls-1{fill:#1d1d1b;}.cls-2{fill:#cc3438;}.cls-3{fill:#1fa058;}.cls-4{fill:#111112;}.cls-5{fill:#fff;}</style></defs><path class="cls-1" d="M93.16,343.24a69.3,69.3,0,0,1-18.83-2.63,9.19,9.19,0,1,1,5-17.7A50.55,50.55,0,0,0,98,324.62l.49-.05c6.69-.65,19.16-1.87,25.56-10.31,2.26-3,3.11-6.46,5.22-16.09a113.49,113.49,0,0,0,2.66-24.27,9.19,9.19,0,0,1,9.19-9.18h0a9.19,9.19,0,0,1,9.19,9.2,132.51,132.51,0,0,1-3.08,28.19c-2.32,10.55-3.72,16.9-8.54,23.26-11.25,14.86-30.3,16.71-38.43,17.5l-.48.05Q96.45,343.24,93.16,343.24Z" transform="translate(-10.79 -49.16)"/><path class="cls-2" d="M48.4,363.37a37.65,37.65,0,0,1-37.61-37.61V273.91a9.2,9.2,0,0,1,18.39,0v51.85a19.23,19.23,0,1,0,38.45,0V273.91a9.2,9.2,0,0,1,18.39,0v51.85A37.66,37.66,0,0,1,48.4,363.37Z" transform="translate(-10.79 -49.16)"/><path class="cls-1" d="M512.1,263.48c-20.49,1.15-36.05,19.06-36.05,39.57v56.4c0,4.58,3.13,8.83,7.65,9.56a9.2,9.2,0,0,0,10.74-9.07v-5.21c0-8.74,7.42-15.87,16.11-15a39,39,0,0,0,12.59-.83,38.25,38.25,0,0,0-11-75.41Zm2.19,58a19.85,19.85,0,1,1,19.85-19.85A19.87,19.87,0,0,1,514.29,321.51Z" transform="translate(-10.79 -49.16)"/><path class="cls-1" d="M575.57,338.18c-5.08,0-13.14-7.94-13.14-13V249.11c0-5.08-.09-9.2,5-9.2s13.39,11.58,13.39,16.65V329C580.81,334.07,580.65,338.18,575.57,338.18Z" transform="translate(-10.79 -49.16)"/><path class="cls-1" d="M447.54,338.18c-5.08,0-13.15-7.94-13.15-13V249.11c0-5.08-.08-9.2,5-9.2s13.4,11.58,13.4,16.65V329C452.78,334.07,452.61,338.18,447.54,338.18Z" transform="translate(-10.79 -49.16)"/><path class="cls-1" d="M415.8,240c-4.52.74-11.42,10-11.42,14.61V319.8H288.5a8.66,8.66,0,0,1-8.66-8.66V264.89c0-4.58-3.13-8.82-7.65-9.56a9.2,9.2,0,0,0-10.74,9.07v46.74a8.66,8.66,0,0,1-8.66,8.66H226.42c-4.58,0-8.82,3.12-9.56,7.65a9.2,9.2,0,0,0,9.07,10.73H413.39a9.38,9.38,0,0,0,9.38-9.38V249.11C422.77,243.53,421.56,239.1,415.8,240Z" transform="translate(-10.79 -49.16)"/><path class="cls-2" d="M381.27,302.87A39.29,39.29,0,1,0,342,342.16c.81,0,1.6-.08,2.4-.12v13.32a9.2,9.2,0,1,0,18.39,0v-19.2A39.21,39.21,0,0,0,381.27,302.87ZM342,319.6a19.94,19.94,0,1,1,19.26-16.31,9.19,9.19,0,0,0-16.86,5.06v11A21.2,21.2,0,0,1,342,319.6Z" transform="translate(-10.79 -49.16)"/><path class="cls-2" d="M196.5,264.72a36.6,36.6,0,0,0-36.56,36.56v57.14a9.2,9.2,0,0,0,18.39,0v-26.3c9,5.75,20.61,8.86,33.75,8.86.85,0,1.73-.08,2.59-.1v17.54a9.2,9.2,0,0,0,18.39,0V301.28A36.6,36.6,0,0,0,196.5,264.72Zm-15.56,44.55a21,21,0,0,1-2.57-8.39,18.15,18.15,0,0,1,36.3.4v21.19C199.13,323,186.07,318.08,180.94,309.27Z" transform="translate(-10.79 -49.16)"/><path class="cls-1" d="M584.62,220.63H573.05a11.91,11.91,0,0,1,1.84-5.12,12.57,12.57,0,0,1,7.13-5.15,4.6,4.6,0,0,0-2.41-8.88,22,22,0,0,0-12.41,9,21.37,21.37,0,0,0-3.41,10.15H559.2a4.6,4.6,0,1,0,0,9.19h25.42a4.6,4.6,0,0,0,0-9.19Z" transform="translate(-10.79 -49.16)"/><rect class="cls-1" x="345.9" y="238.94" width="18.04" height="18.04" rx="2" transform="translate(268.5 -227.5) rotate(45)"/><rect class="cls-1" x="318.57" y="238.94" width="18.04" height="18.04" rx="2" transform="translate(260.5 -208.18) rotate(45)"/><rect class="cls-1" x="274.24" y="347.19" width="18.04" height="18.04" rx="2" transform="translate(324.06 -145.12) rotate(45)"/><rect class="cls-1" x="246.91" y="347.19" width="18.04" height="18.04" rx="2" transform="translate(316.06 -125.8) rotate(45)"/><rect class="cls-1" x="131.3" y="347.19" width="18.04" height="18.04" rx="2" transform="translate(282.2 -44.05) rotate(45)"/><rect class="cls-1" x="103.97" y="347.19" width="18.04" height="18.04" rx="2" transform="translate(274.19 -24.73) rotate(45)"/><rect class="cls-1" x="39.38" y="239.23" width="18.04" height="18.04" rx="2" transform="translate(178.93 -10.68) rotate(45)"/><rect class="cls-3" x="222.02" width="166" height="39.75"/><rect class="cls-2" x="154.63" width="67.39" height="117.4"/><rect class="cls-4" x="222.02" y="77.07" width="166" height="40.13"/><rect class="cls-5" x="222.02" y="39.94" width="166" height="36.94"/></svg>